<svg width="188" height="205" viewBox="0 0 188 205" fill="none" xmlns="http://www.w3.org/2000/svg">
<path d="M48.1273 34.866H84.5203C87.5309 34.866 89.9716 37.3066 89.9716 40.3172V125.869C89.9716 128.88 87.5309 131.32 84.5203 131.32H48.1273C45.1166 131.32 42.676 128.88 42.676 125.869V40.3172C42.676 37.3066 45.1166 34.866 48.1273 34.866Z" fill="#292A2E"/>
<path d="M75.3035 35.8643H57.3438V37.7226C57.3438 38.2556 57.5555 38.7667 57.9324 39.1436C58.3093 39.5204 58.8204 39.7322 59.3534 39.7322H73.2939C73.8269 39.7322 74.338 39.5204 74.7149 39.1436C75.0917 38.7667 75.3035 38.2556 75.3035 37.7226V35.8643Z" fill="#292A2E"/>
<mask id="mask0_214_235" style="mask-type:alpha" maskUnits="userSpaceOnUse" x="44" y="36" width="45" height="94">
<path d="M48.1375 36.5681H84.4963C86.5636 36.5681 88.2395 38.244 88.2395 40.3113V125.747C88.2395 127.815 86.5636 129.491 84.4963 129.491H48.1375C46.0701 129.491 44.3943 127.815 44.3943 125.747V40.3113C44.3943 38.244 46.0701 36.5681 48.1375 36.5681Z" fill="white"/>
</mask>
<g mask="url(#mask0_214_235)">
<path d="M16.9636 110.64C1.61209 85.2133 9.77993 52.1558 35.207 36.8043C60.634 21.4528 93.6915 29.6207 109.043 55.0477C124.395 80.4747 116.227 113.532 90.7996 128.884C65.3726 144.235 32.3151 136.067 16.9636 110.64Z" fill="#FF9191"/>
<path opacity="0.86" d="M16.9636 110.64C1.61209 85.2133 9.77993 52.1558 35.207 36.8043C60.634 21.4528 93.6915 29.6207 109.043 55.0477C124.395 80.4747 116.227 113.532 90.7996 128.884C65.3726 144.235 32.3151 136.067 16.9636 110.64Z" fill="white"/>
<path opacity="0.1" d="M76.9277 107.509L57.4739 106.159L64.4923 123.817L74.989 124.813L76.9277 107.509Z" fill="#FF9191"/>
<path opacity="0.1" d="M60.6218 33.0225L69.8851 36.2297L64.071 49.5178L60.1241 48.842L60.6218 33.0225Z" fill="#FF9191"/>
<path opacity="0.1" d="M95.6496 101.827L96.4963 93.2241L85.3488 93.1292L85.8017 100.731L95.6496 101.827Z" fill="#FF9191"/>
<path opacity="0.1" d="M82.0474 99.5664L82.8332 90.6412L73.3552 89.623L72.233 93.967L64.6535 93.0819L65.0327 87.8032L56.9748 86.7843L55.9009 98.3663L82.0474 99.5664Z" fill="#FF9191"/>
<path d="M32.733 38.3904L31.0422 70.8829L11.211 68.359C11.0645 68.8785 10.9269 69.4003 10.7984 69.9242L30.9228 72.4854L28.2682 99.6497L11.5207 98.4396C11.687 98.9909 11.8637 99.5401 12.051 100.087L28.9328 101.306L52.379 103.161L60.6425 126.201L44.8768 133.477C45.6127 133.741 46.3537 133.988 47.0998 134.217L61.7548 127.454L85.7737 131.568C86.5896 131.188 87.3987 130.784 88.2011 130.357L62.2412 125.911L54.1336 103.301L110.664 107.775C110.932 107.263 111.191 106.747 111.441 106.227L53.5396 101.644L53.4758 101.466L55.5877 71.3476L84.0664 74.585L109.695 56.1611C109.482 55.7878 109.265 55.4167 109.042 55.0479C108.987 54.9564 108.931 54.8648 108.875 54.7741L83.6323 72.921L55.7007 69.7447L58.5403 29.2395C57.9999 29.2825 57.4598 29.3352 56.9198 29.3974L51.8648 101.512L29.868 99.7714L32.6707 71.0907L32.6368 71.0862L34.3953 37.3057C33.8319 37.6583 33.2792 38.019 32.733 38.3904Z" fill="white"/>
</g>
<path d="M125.623 166.993C125.623 166.993 124.965 170.406 121.769 170.597C118.572 170.788 119.265 173.334 119.265 173.334H131.48V167.231L125.623 166.993Z" fill="#FF9191"/>
<path d="M132.309 104.719C132.309 104.719 132.27 103.693 132.279 106.02C132.309 114.704 132.019 169.172 132.019 169.172L123.993 169.104L119.131 104.366L132.309 104.719Z" fill="#262626"/>
<path d="M111.92 166.993C111.92 166.993 111.261 170.406 108.065 170.597C104.869 170.788 105.562 173.334 105.562 173.334H117.776V167.231L111.92 166.993Z" fill="#FF9191"/>
<path d="M110.365 105.393C110.365 105.393 109.363 135.07 109.467 136.521L110.41 168.946L118.303 169.092L119.576 135.347C119.576 135.347 120.411 126.039 122.66 117.395C123.81 112.959 124.503 108.416 124.726 103.839L110.365 105.393Z" fill="#262626"/>
<path d="M120.779 126.434L120.121 116.368C120.121 116.368 119.445 120.553 119.445 124.16C119.445 125.923 119.808 132.903 119.808 132.903L120.779 126.434Z" fill="#0A0A0A"/>
<path d="M132.395 104.718L132.421 104.719C132.421 104.719 132.402 104.213 132.395 104.718Z" fill="#333333"/>
<path d="M132.364 104.718L132.39 104.719C132.39 104.719 132.371 104.213 132.364 104.718Z" fill="#333333"/>
<path d="M88.3809 80.6297C88.4292 80.534 88.5061 80.4556 88.6009 80.4054C88.6957 80.3552 88.8037 80.3357 88.9101 80.3495C88.9091 80.3431 88.9098 80.3366 88.912 80.3304C88.9141 80.3243 88.9178 80.3189 88.9225 80.3145C88.9273 80.3101 88.9331 80.3069 88.9393 80.3053C88.9456 80.3036 88.9522 80.3036 88.9585 80.305L88.5995 80.0479C88.4921 79.9743 88.4149 79.8644 88.3822 79.7384C88.3496 79.6123 88.3636 79.4787 88.4218 79.3623C88.483 79.2491 88.584 79.1627 88.7053 79.1198C88.8266 79.0769 88.9595 79.0806 89.0782 79.1302C89.0772 79.1251 89.0807 79.1203 89.0815 79.1156L88.934 79.01C88.8331 78.9403 88.7594 78.838 88.7253 78.7202C88.6912 78.6024 88.6989 78.4765 88.747 78.3637C88.7786 78.2936 88.8254 78.2314 88.884 78.1816C88.9425 78.1317 89.0114 78.0955 89.0857 78.0755C89.16 78.0555 89.2377 78.0523 89.3134 78.066C89.3891 78.0797 89.4607 78.1101 89.5233 78.1548L89.8636 78.3989C89.8646 78.3968 89.8636 78.3945 89.8649 78.3926C89.8662 78.3907 89.87 78.39 89.8719 78.3879C89.7938 78.3 89.7479 78.1882 89.7417 78.0707C89.7355 77.9533 89.7693 77.8372 89.8378 77.7416C89.9982 77.4831 90.3692 77.5359 90.5893 77.6936L92.5923 79.0773L92.2343 78.4744C92.1624 78.3584 92.137 78.2194 92.1635 78.0854C92.1899 77.9515 92.2662 77.8325 92.3768 77.7525C92.4355 77.7133 92.5015 77.6864 92.5708 77.6736C92.6402 77.6607 92.7114 77.6621 92.7802 77.6777C92.849 77.6933 92.9139 77.7227 92.9709 77.7642C93.028 77.8056 93.076 77.8583 93.112 77.919L95.0666 81.2101C95.296 81.5962 95.3657 82.0565 95.2611 82.4932C95.1565 82.9299 94.8857 83.3085 94.5063 83.5488C94.0663 83.8274 93.5531 83.9683 93.0325 83.9534C92.5119 83.9384 92.0077 83.7683 91.5844 83.4649L88.5594 81.2968C88.4588 81.222 88.3864 81.1154 88.354 80.9943C88.3216 80.8732 88.3311 80.7447 88.3809 80.6297Z" fill="#FFB89C"/>
<g opacity="0.25">
<path d="M91.8418 79.7658C91.8344 79.7759 91.8233 79.7828 91.811 79.7849C91.7987 79.787 91.786 79.7842 91.7757 79.7771L89.8724 78.4589C89.862 78.4516 89.8548 78.4406 89.8526 78.4281C89.8503 78.4155 89.8531 78.4027 89.8603 78.3922C89.8676 78.3818 89.8786 78.3746 89.8911 78.3724C89.9036 78.3701 89.9165 78.3729 89.927 78.3801L91.8302 79.6983C91.8407 79.7055 91.8478 79.7166 91.8501 79.7291C91.8523 79.7416 91.8496 79.7545 91.8423 79.765L91.8418 79.7658Z" fill="#0C0C0C"/>
</g>
<g opacity="0.25">
<path d="M91.286 80.6213C91.2786 80.6314 91.2675 80.6383 91.2552 80.6403C91.2429 80.6424 91.2302 80.6397 91.2199 80.6326L89.0959 79.1614C89.0908 79.1578 89.0863 79.1532 89.0829 79.1479C89.0795 79.1427 89.0772 79.1368 89.0761 79.1306C89.0749 79.1244 89.075 79.118 89.0764 79.1119C89.0777 79.1057 89.0802 79.0999 89.0838 79.0947C89.0913 79.0846 89.1024 79.0778 89.1148 79.0755C89.1272 79.0733 89.1399 79.0758 89.1505 79.0826L91.2744 80.5538C91.2849 80.5611 91.292 80.5721 91.2943 80.5846C91.2965 80.5971 91.2938 80.61 91.2866 80.6205L91.286 80.6213Z" fill="#0C0C0C"/>
</g>
<g opacity="0.25">
<path d="M90.6879 81.5522C90.6806 81.5623 90.6695 81.5691 90.6572 81.5712C90.6449 81.5732 90.6323 81.5704 90.622 81.5633L88.9276 80.3898C88.9172 80.3825 88.91 80.3715 88.9078 80.359C88.9055 80.3465 88.9083 80.3336 88.9155 80.3231C88.9227 80.3127 88.9338 80.3055 88.9463 80.3033C88.9588 80.301 88.9717 80.3038 88.9822 80.311L90.6765 81.4845C90.687 81.4917 90.6941 81.5028 90.6964 81.5153C90.6986 81.5278 90.6959 81.5407 90.6887 81.5512L90.6879 81.5522Z" fill="#0C0C0C"/>
</g>
<path d="M96.2193 80.4602L101.96 90.2379L108.965 81.0495L114.783 86.2944L104.848 99.1613L104.783 99.2529C104.385 99.7976 103.855 100.232 103.243 100.515C102.631 100.799 101.957 100.921 101.285 100.872C100.612 100.823 99.9632 100.603 99.399 100.234C98.8347 99.8645 98.3738 99.3575 98.0597 98.7608L89.8959 83.9767L96.2193 80.4602Z" fill="#FF9191"/>
<path d="M102.525 91.4137C102.537 91.4137 102.55 91.4105 102.56 91.4044C102.571 91.3983 102.581 91.3895 102.587 91.3789C102.594 91.3682 102.597 91.356 102.598 91.3435C102.598 91.331 102.595 91.3186 102.59 91.3075L102.027 90.2048C102.023 90.1959 102.017 90.1881 102.009 90.1816C102.002 90.1751 101.994 90.1701 101.984 90.167C101.975 90.1638 101.965 90.1626 101.956 90.1633C101.946 90.164 101.936 90.1666 101.928 90.1711C101.919 90.1755 101.911 90.1817 101.905 90.1891C101.899 90.1966 101.894 90.2053 101.891 90.2146C101.888 90.2239 101.887 90.2337 101.888 90.2435C101.889 90.2532 101.892 90.2626 101.897 90.2711L102.46 91.3739C102.466 91.3858 102.475 91.3959 102.487 91.4029C102.498 91.4099 102.511 91.4137 102.525 91.4137Z" fill="#0C0C0C"/>
<path d="M127.202 67.228C127.202 67.228 127.838 70.6169 128.755 71.7644C131.394 75.068 132.515 79.0052 130.55 81.3671C128.585 83.7289 114.456 85.4476 112.809 80.7524C111.422 76.7994 113.305 76.1315 113.374 72.7254C113.406 71.1843 113.612 67.9361 113.612 67.9361" fill="#0A0A0A"/>
<path d="M115.74 78.9605C115.765 78.9572 116.037 83.481 121.292 83.0867C124.931 82.8141 126.228 78.954 126.311 78.954C125.919 78.8707 125.258 78.7498 125.084 78.6565C124.511 78.3487 123.803 78.0284 123.618 76.9159C123.512 76.2741 123.692 72.9941 123.636 72.3455L118.052 73.5919C118.13 74.9621 118.676 78.1385 116.762 78.7008C116.443 78.7937 116.1 78.8792 115.74 78.9605Z" fill="#FFB89C"/>
<path opacity="0.52" d="M117.973 77.4025C118.061 77.1206 118.117 76.83 118.141 76.5358C118.203 75.8645 118.19 75.1885 118.105 74.5198C119.24 74.3666 120.309 73.898 121.191 73.1675C121.295 73.5505 121.865 75.2242 121.707 75.5878C121.409 76.2759 120.006 77.4025 117.973 77.4025Z" fill="#0C0C0C"/>
<path d="M118.965 76.3097C121.177 76.2598 123.901 75.0472 124.139 72.065L124.353 69.3748C124.591 66.3933 123.218 63.8514 120.411 63.6277C117.604 63.4036 115.313 65.6532 115.075 68.6347L114.98 69.8257C114.888 70.9701 115.019 76.3985 118.965 76.3097Z" fill="#FFB89C"/>
<path opacity="0.52" d="M117.658 72.3525H117.653C117.539 72.3425 117.426 72.3264 117.314 72.304C117.146 72.2695 116.925 72.2062 116.937 72.0571C116.951 71.8872 117.562 70.0914 117.632 69.8872C117.635 69.8784 117.64 69.8702 117.646 69.8632C117.652 69.8562 117.66 69.8505 117.668 69.8464C117.676 69.8423 117.685 69.8398 117.695 69.8393C117.704 69.8387 117.713 69.8399 117.722 69.8429C117.731 69.8459 117.739 69.8507 117.746 69.8568C117.753 69.863 117.759 69.8705 117.763 69.8789C117.767 69.8872 117.77 69.8964 117.77 69.9057C117.771 69.915 117.769 69.9243 117.766 69.9331C117.505 70.6979 117.088 71.954 117.079 72.0685C117.103 72.1184 117.382 72.1882 117.664 72.2108C117.683 72.212 117.7 72.2203 117.712 72.2341C117.725 72.2479 117.732 72.2661 117.731 72.2847C117.73 72.3032 117.722 72.3208 117.708 72.3335C117.695 72.3463 117.677 72.3532 117.658 72.3528V72.3525Z" fill="#0C0C0C"/>
<path opacity="0.52" d="M118.202 73.57C117.747 73.56 117.3 73.4434 116.899 73.2294C116.882 73.2209 116.869 73.206 116.863 73.1881C116.857 73.1702 116.859 73.1507 116.868 73.1339C116.876 73.1171 116.891 73.1043 116.909 73.0985C116.927 73.0926 116.946 73.0941 116.963 73.1027C117.83 73.543 118.644 73.5416 119.317 73.0986C119.33 73.0892 119.345 73.0806 119.359 73.0728C119.376 73.0651 119.395 73.0643 119.412 73.0706C119.43 73.0769 119.444 73.0897 119.452 73.1063C119.46 73.1229 119.462 73.1421 119.456 73.1596C119.45 73.1772 119.438 73.1918 119.421 73.2004C119.416 73.2033 119.407 73.2093 119.395 73.2175C119.041 73.4511 118.626 73.5739 118.202 73.57Z" fill="#0C0C0C"/>
<path d="M126.653 70.0578L124.138 69.8715C122.189 69.3172 121.275 66.1448 121.275 66.1448C121.275 66.1448 119.245 68.6006 113.612 67.9359C113.612 67.9359 113.887 60.1499 122.25 61.5032C124.946 61.9392 127.111 64.3756 127.257 67.9281C127.359 70.4176 126.653 70.0578 126.653 70.0578Z" fill="#0A0A0A"/>
<path d="M123.89 72.9605C124.744 73.0285 125.508 72.1711 125.576 71.3179C125.644 70.4648 124.99 69.9392 124.137 69.8711L123.652 70.4077L123.157 72.902L123.89 72.9605Z" fill="#FFB89C"/>
<path d="M116.976 68.5439C116.715 68.4127 116.424 68.3541 116.133 68.3743C115.989 68.3833 115.848 68.4139 115.714 68.4648C115.58 68.5148 115.454 68.5813 115.337 68.6629C115.322 68.6738 115.311 68.6902 115.307 68.7089C115.303 68.7277 115.306 68.7471 115.316 68.7634C115.327 68.7796 115.343 68.7913 115.361 68.796C115.38 68.8008 115.399 68.7982 115.416 68.7888L115.421 68.7859C115.529 68.7173 115.646 68.6626 115.768 68.623C115.889 68.5832 116.015 68.562 116.142 68.5599C116.393 68.5539 116.642 68.6146 116.863 68.7359L116.87 68.7399C116.896 68.7546 116.926 68.7585 116.955 68.7507C116.983 68.743 117.007 68.7242 117.022 68.6985C117.037 68.6728 117.041 68.6424 117.033 68.6139C117.025 68.5853 117.006 68.5611 116.981 68.5464L116.976 68.5439Z" fill="#0C0C0C"/>
<path d="M119.231 68.8245C119.468 68.7387 119.723 68.7171 119.971 68.762C120.096 68.7835 120.217 68.8239 120.33 68.8819C120.445 68.9398 120.551 69.0119 120.648 69.0964L120.652 69.0999C120.667 69.112 120.686 69.1178 120.706 69.1161C120.725 69.1143 120.743 69.1052 120.755 69.0906C120.768 69.0761 120.774 69.0572 120.773 69.038C120.772 69.0187 120.763 69.0007 120.749 68.9876C120.647 68.8891 120.532 68.804 120.408 68.7341C120.283 68.6629 120.148 68.611 120.008 68.5799C119.723 68.5151 119.426 68.5281 119.148 68.6174C119.134 68.6217 119.121 68.6287 119.109 68.6382C119.098 68.6477 119.088 68.6595 119.081 68.6727C119.074 68.6859 119.07 68.7004 119.069 68.7153C119.068 68.7302 119.07 68.7452 119.074 68.7594C119.079 68.7736 119.086 68.7867 119.096 68.7979C119.106 68.8092 119.118 68.8183 119.132 68.8248C119.145 68.8313 119.16 68.8351 119.175 68.8358C119.19 68.8366 119.204 68.8343 119.219 68.8292L119.223 68.8276L119.231 68.8245Z" fill="#0C0C0C"/>
<path opacity="0.52" d="M118.176 74.2443C118.094 74.2438 118.012 74.2363 117.931 74.222C117.912 74.2187 117.896 74.2083 117.885 74.1929C117.874 74.1774 117.87 74.1583 117.873 74.1398C117.876 74.1212 117.887 74.1047 117.902 74.0938C117.918 74.083 117.937 74.0787 117.955 74.0819C118.443 74.167 118.692 73.9578 118.703 73.9488C118.717 73.9373 118.735 73.9318 118.754 73.9334C118.772 73.935 118.789 73.9436 118.801 73.9573C118.813 73.9711 118.819 73.9891 118.818 74.0074C118.818 74.0257 118.81 74.043 118.797 74.0557C118.618 74.1882 118.399 74.2549 118.176 74.2443Z" fill="#0C0C0C"/>
<path d="M124.129 69.8401L124.146 69.7692C120.9 68.9845 121.334 65.8358 121.338 65.804L121.266 65.7932C121.261 65.8256 120.817 69.0394 124.129 69.8401Z" fill="#0C0C0C"/>
<path opacity="0.1" d="M119.896 72.3283C119.531 72.3283 119.235 72.1113 119.235 71.8436C119.235 71.5759 119.531 71.3589 119.896 71.3589C120.261 71.3589 120.556 71.5759 120.556 71.8436C120.556 72.1113 120.261 72.3283 119.896 72.3283Z" fill="#0C0C0C"/>
<path opacity="0.1" d="M115.968 71.728C115.968 71.9954 115.672 72.2121 115.307 72.2127C115.244 72.2127 115.181 72.2061 115.119 72.1932C115.065 71.8809 115.028 71.5788 115.004 71.2979C115.101 71.2609 115.204 71.2425 115.307 71.2434C115.672 71.2429 115.968 71.4596 115.968 71.728Z" fill="#0C0C0C"/>
<path d="M109.206 88.9198C109.371 90.8646 110.177 102.997 110.336 105.393H132.27C132.394 103.232 132.95 93.7853 133.42 89.5606C133.869 85.5292 134.749 83.5108 134.104 82.319C133.049 80.3711 130.169 79.2456 128.205 78.9797C127.006 78.8173 125.202 78.7009 125.202 78.7009C125.202 78.7009 125.05 81.7904 121.408 81.9623C116.451 82.1957 116.782 78.7009 116.757 78.7009C115.954 78.7009 111.366 79.2093 110.244 79.8746C107.186 81.6858 108.854 84.7987 109.206 88.9198Z" fill="#FF9191"/>
<path d="M109.03 98.4675C109.037 98.3605 109.077 98.2582 109.144 98.1748C109.212 98.0915 109.303 98.0311 109.406 98.0021C109.402 97.9937 109.4 97.9842 109.401 97.9748C109.403 97.967 109.407 97.9599 109.413 97.9541C109.419 97.9484 109.426 97.9443 109.433 97.9421L109.002 97.8464C108.875 97.821 108.761 97.7503 108.681 97.6473C108.602 97.5442 108.562 97.4159 108.57 97.286C108.582 97.158 108.641 97.039 108.735 96.952C108.83 96.865 108.954 96.8162 109.082 96.8152C109.079 96.8108 109.08 96.8049 109.079 96.8006L108.902 96.7613C108.782 96.7369 108.674 96.6717 108.596 96.5767C108.519 96.4818 108.476 96.3629 108.476 96.2403C108.478 96.1634 108.496 96.0878 108.531 96.019C108.565 95.9502 108.614 95.8898 108.675 95.8423C108.735 95.7948 108.805 95.7612 108.88 95.7442C108.955 95.7271 109.033 95.7268 109.108 95.7435L109.517 95.8342C109.517 95.8319 109.515 95.8301 109.515 95.8279C109.516 95.8257 109.519 95.8236 109.52 95.8209C109.414 95.7708 109.327 95.6859 109.276 95.5803C109.224 95.4747 109.209 95.3547 109.235 95.2398C109.281 94.939 109.643 94.842 109.907 94.9007L112.293 95.3867L111.727 94.9729C111.615 94.8945 111.537 94.7766 111.508 94.643C111.48 94.5094 111.504 94.37 111.574 94.253C111.613 94.1939 111.663 94.1433 111.722 94.1043C111.78 94.0652 111.846 94.0385 111.916 94.0258C111.985 94.0131 112.056 94.0147 112.125 94.0304C112.194 94.0462 112.259 94.0758 112.316 94.1174L115.406 96.3767C115.768 96.6417 116.013 97.0376 116.089 97.4803C116.164 97.923 116.063 98.3777 115.809 98.7476C115.514 99.1766 115.097 99.5077 114.612 99.6984C114.127 99.889 113.597 99.9306 113.088 99.8178L109.455 99.0113C109.333 98.9819 109.225 98.9122 109.148 98.8135C109.071 98.7148 109.029 98.5928 109.03 98.4675Z" fill="#FFB89C"/>
<g opacity="0.25">
<path d="M111.875 96.3127C111.872 96.3249 111.865 96.3355 111.854 96.3423C111.844 96.349 111.831 96.3514 111.819 96.3489L109.551 95.8838C109.539 95.8808 109.528 95.8733 109.522 95.8629C109.515 95.8524 109.513 95.8398 109.515 95.8277C109.518 95.8155 109.525 95.8049 109.535 95.7978C109.545 95.7908 109.558 95.788 109.57 95.7899L111.838 96.2554C111.844 96.2566 111.85 96.2591 111.855 96.2626C111.86 96.2661 111.865 96.2706 111.868 96.2759C111.872 96.2811 111.874 96.287 111.875 96.2931C111.877 96.2993 111.877 96.3057 111.875 96.3118L111.875 96.3127Z" fill="#0C0C0C"/>
</g>
<g opacity="0.25">
<path d="M111.704 97.3186C111.702 97.3308 111.694 97.3415 111.684 97.3482C111.673 97.355 111.66 97.3574 111.648 97.3548L109.117 96.8358C109.111 96.8346 109.105 96.8321 109.1 96.8286C109.095 96.825 109.09 96.8205 109.087 96.8152C109.083 96.81 109.081 96.8041 109.08 96.7979C109.078 96.7917 109.078 96.7854 109.08 96.7792C109.083 96.767 109.09 96.7564 109.101 96.7494C109.111 96.7425 109.124 96.7398 109.136 96.7419L111.667 97.261C111.68 97.2636 111.691 97.271 111.698 97.2816C111.705 97.2922 111.707 97.3052 111.705 97.3176L111.704 97.3186Z" fill="#0C0C0C"/>
</g>
<g opacity="0.25">
<path d="M111.516 98.4091C111.514 98.4213 111.506 98.4319 111.496 98.4386C111.485 98.4454 111.472 98.4478 111.46 98.4453L109.441 98.0313C109.429 98.0283 109.419 98.0208 109.412 98.0103C109.406 97.9998 109.403 97.9872 109.406 97.9751C109.408 97.963 109.415 97.9523 109.426 97.9453C109.436 97.9382 109.448 97.9354 109.46 97.9374L111.479 98.3513C111.492 98.3539 111.503 98.3613 111.51 98.3719C111.517 98.3825 111.519 98.3955 111.517 98.4079L111.516 98.4091Z" fill="#0C0C0C"/>
</g>
<path d="M113.314 101.255L133.027 104.818C133.642 104.885 134.264 104.808 134.845 104.594C135.425 104.38 135.948 104.034 136.373 103.584C136.798 103.134 137.112 102.592 137.292 102C137.472 101.408 137.512 100.782 137.409 100.172L134.65 83.7682C134.563 83.2492 134.374 82.7525 134.095 82.3064C133.816 81.8602 133.452 81.4734 133.024 81.1681C132.595 80.8628 132.111 80.6448 131.598 80.5268C131.085 80.4088 130.554 80.393 130.035 80.4803C129.517 80.5676 129.02 80.7563 128.574 81.0356C128.128 81.3149 127.742 81.6793 127.437 82.1081C127.132 82.5368 126.914 83.0215 126.796 83.5343C126.679 84.0472 126.663 84.5782 126.751 85.097L128.633 96.3892L114.18 94.5742L113.314 101.255Z" fill="#FF9191"/>
<path d="M133.025 104.89C133.043 104.89 133.061 104.883 133.074 104.871C133.088 104.859 133.096 104.842 133.098 104.824C133.099 104.806 133.094 104.788 133.083 104.773C133.072 104.759 133.056 104.749 133.038 104.746L113.393 101.195L114.242 94.6554L128.622 96.4613C128.633 96.4628 128.645 96.4616 128.656 96.4578C128.666 96.454 128.676 96.4478 128.684 96.4395C128.692 96.4313 128.698 96.4214 128.701 96.4105C128.704 96.3997 128.705 96.3882 128.703 96.3769L127.507 89.1598C127.506 89.1501 127.503 89.1408 127.498 89.1324C127.493 89.124 127.486 89.1167 127.478 89.1109C127.47 89.1051 127.461 89.101 127.452 89.0987C127.442 89.0964 127.433 89.0961 127.423 89.0977C127.413 89.0993 127.404 89.1028 127.396 89.108C127.388 89.1132 127.38 89.1201 127.375 89.1281C127.369 89.1361 127.365 89.1452 127.363 89.1547C127.361 89.1643 127.361 89.1742 127.363 89.1837L128.544 96.3043L114.188 94.5016C114.169 94.4992 114.15 94.5044 114.134 94.5162C114.119 94.528 114.109 94.5453 114.107 94.5644L113.24 101.245C113.237 101.264 113.242 101.282 113.253 101.298C113.264 101.313 113.281 101.323 113.299 101.326L133.012 104.889C133.016 104.89 133.021 104.89 133.025 104.89Z" fill="#0C0C0C"/>
<path d="M128.646 96.3175L129.914 96.5205L129.891 96.6647L128.623 96.4617L128.646 96.3175Z" fill="#0C0C0C"/>
<path d="M115.901 70.464C115.71 70.464 115.554 70.3087 115.554 70.1171C115.554 69.9256 115.71 69.7703 115.901 69.7703C116.093 69.7703 116.248 69.9256 116.248 70.1171C116.248 70.3087 116.093 70.464 115.901 70.464Z" fill="#0C0C0C"/>
<path d="M119.406 70.486C119.215 70.486 119.06 70.3307 119.06 70.1391C119.06 69.9475 119.215 69.7922 119.406 69.7922C119.598 69.7922 119.753 69.9475 119.753 70.1391C119.753 70.3307 119.598 70.486 119.406 70.486Z" fill="#0C0C0C"/>
<path d="M109.372 90.182L109.548 93.2703L109.402 93.2785L109.227 90.1903L109.372 90.182Z" fill="#0C0C0C"/>
</svg>
