<?xml version="1.0" standalone="no"?>
<!DOCTYPE svg PUBLIC "-//W3C//DTD SVG 20010904//EN"
 "http://www.w3.org/TR/2001/REC-SVG-20010904/DTD/svg10.dtd">
<svg version="1.0" xmlns="http://www.w3.org/2000/svg"
 width="300.000000pt" height="98.000000pt" viewBox="0 0 300.000000 98.000000"
 preserveAspectRatio="xMidYMid meet">
<metadata>
Created by potrace 1.10, written by Peter Selinger 2001-2011
</metadata>
<g transform="translate(0.000000,98.000000) scale(0.100000,-0.100000)"
fill="#000000" stroke="none">
<path d="M220 511 l0 -231 58 6 c72 8 163 -9 225 -41 l47 -24 -2 226 -3 226
-55 31 c-50 28 -64 31 -162 35 l-108 3 0 -231z m240 164 c19 -10 38 -23 42
-29 4 -6 8 -86 8 -178 0 -183 3 -175 -60 -158 -19 5 -65 11 -102 14 -37 2 -72
7 -78 11 -12 7 -14 347 -2 359 13 14 155 0 192 -19z"/>
<path d="M690 725 c-25 -8 -57 -25 -72 -37 l-27 -23 -3 -223 c-2 -122 -1 -221
2 -219 3 2 32 16 65 32 53 25 71 29 157 29 l98 1 0 228 0 227 -87 -1 c-49 0
-108 -7 -133 -14z m178 -212 c1 -101 -1 -183 -5 -183 -69 -4 -138 -12 -177
-21 -37 -9 -50 -9 -56 1 -4 7 -7 84 -6 172 1 157 2 160 26 179 37 28 77 38
150 36 l65 -2 3 -182z"/>
<path d="M155 449 c0 -245 0 -250 20 -244 72 20 170 27 237 17 40 -6 74 -9 76
-7 2 2 -22 11 -53 21 -42 12 -83 15 -151 12 l-94 -4 0 228 c0 210 -1 228 -17
228 -17 0 -18 -19 -18 -251z"/>
<path d="M950 473 l0 -228 -122 0 c-77 0 -134 -5 -152 -13 -42 -18 -30 -21 46
-10 63 9 172 1 236 -18 l22 -6 0 251 c0 216 -2 251 -15 251 -13 0 -15 -32 -15
-227z"/>
<path d="M1186 623 c-3 -27 -8 -123 -12 -215 l-6 -168 69 0 c39 0 98 3 132 6
l61 7 0 53 0 54 -76 0 -76 0 7 155 7 155 -50 0 -50 0 -6 -47z m60 -85 c-3 -40
-6 -83 -6 -95 0 -13 -4 -23 -10 -23 -11 0 -14 109 -4 159 12 58 24 31 20 -41z
m16 -198 c7 -11 19 -20 26 -20 7 0 10 -5 6 -11 -3 -6 -15 -9 -25 -6 -22 6 -25
-3 -7 -21 7 -7 8 -12 2 -12 -9 0 -32 23 -47 47 -10 16 2 43 19 43 8 0 19 -9
26 -20z m68 -17 c0 -5 -4 -15 -10 -23 -6 -9 -5 -17 3 -22 9 -6 9 -8 0 -8 -17
0 -25 17 -18 40 6 19 25 29 25 13z m55 -18 c0 -5 -10 -11 -22 -13 -16 -2 -23
2 -23 13 0 11 7 15 23 13 12 -2 22 -7 22 -13z"/>
<path d="M1549 663 l-76 -4 -6 -67 c-4 -37 -9 -131 -13 -210 l-7 -142 55 0
c30 0 96 3 146 6 l92 7 0 48 0 49 -90 0 c-89 0 -90 0 -90 24 0 26 5 28 103 41
l47 6 -2 45 c-1 49 -2 50 -103 35 l-51 -7 10 32 c10 31 10 31 95 38 47 3 86 7
87 9 1 1 4 22 5 47 l4 45 -65 1 c-36 0 -99 -1 -141 -3z m5 -48 c18 -13 18 -15
-3 -41 -13 -17 -21 -41 -21 -63 0 -58 -3 -69 -17 -64 -27 11 -13 163 16 163
14 0 14 2 1 10 -8 5 -10 10 -5 10 6 -1 18 -7 29 -15z m70 -2 c8 3 18 2 21 -2
8 -14 -44 -19 -55 -6 -5 6 -7 15 -3 19 4 3 10 1 14 -5 4 -7 14 -9 23 -6z m-57
-144 c-13 -8 -15 -14 -7 -30 6 -10 9 -19 6 -19 -2 0 -12 -3 -21 -6 -13 -5 -16
-2 -13 17 4 30 18 48 38 48 12 0 11 -2 -3 -10z m-42 -108 c-2 -13 6 -26 23
-37 l26 -17 -23 -8 c-46 -18 -81 30 -48 66 17 20 26 18 22 -4z"/>
<path d="M1940 661 c-20 -5 -33 -25 -62 -96 -31 -73 -73 -199 -104 -307 -5
-16 2 -18 55 -18 l60 0 6 33 c6 31 11 34 56 43 l49 11 0 -44 0 -43 60 0 c52 0
60 2 60 19 0 41 -61 345 -75 371 -20 39 -47 47 -105 31z m85 -86 c-2 -16 0
-34 4 -40 3 -5 6 -22 7 -37 2 -33 -15 -28 -38 12 -20 36 -43 38 -75 8 l-24
-22 15 42 c24 68 36 84 57 79 10 -3 21 -1 25 4 10 17 31 -15 29 -46z m-48 -97
c11 -61 9 -68 -18 -68 -18 0 -20 4 -13 33 5 17 8 44 8 60 -2 46 14 30 23 -25z
m-44 -29 c-9 -24 -18 -46 -20 -49 -5 -6 -23 22 -23 35 0 6 4 4 9 -3 6 -10 13
-1 25 28 22 56 31 46 9 -11z m97 -1 c0 7 5 10 10 7 17 -10 11 -32 -10 -38 -16
-4 -20 0 -20 21 0 21 2 24 10 12 7 -11 10 -11 10 -2z m-107 -68 c12 0 29 -5
37 -10 12 -8 10 -10 -10 -10 -14 0 -40 -13 -58 -30 -18 -16 -39 -30 -45 -30
-7 0 -1 9 13 20 22 17 23 19 7 25 -20 8 -22 27 -6 57 l11 20 14 -21 c9 -12 25
-21 37 -21z m117 20 c0 -5 -4 -10 -9 -10 -4 0 -8 -10 -7 -22 0 -11 -4 -23 -11
-25 -11 -4 -10 14 3 55 4 14 24 16 24 2z m28 -57 c13 -26 23 -83 14 -83 -13 0
-36 44 -38 73 -2 31 11 36 24 10z"/>
<path d="M2253 660 c-84 -13 -79 -3 -87 -157 -4 -76 -9 -166 -13 -200 l-6 -63
52 0 51 0 0 64 c0 56 3 64 20 69 20 5 38 -20 77 -105 7 -16 17 -28 23 -28 15
0 80 44 80 54 0 5 -14 34 -30 63 l-31 54 30 34 c49 57 50 155 2 199 -22 20
-98 27 -168 16z m136 -46 c2 -2 -5 -4 -15 -4 -11 0 -26 -6 -33 -12 -11 -10
-13 -10 -7 0 6 11 -5 17 -26 13 -5 0 -8 3 -8 9 0 9 79 3 89 -6z m-119 0 c0
-12 -48 -63 -54 -57 -11 11 -6 31 10 47 15 16 44 22 44 10z m79 -48 c18 -22
-11 -71 -50 -85 -18 -6 -34 -9 -37 -7 -2 3 -1 25 2 50 6 39 11 45 34 49 15 2
30 5 33 6 4 0 12 -5 18 -13z m-107 -108 c10 -10 31 -18 46 -18 15 0 33 -5 39
-11 8 -8 13 -8 17 0 4 6 2 11 -3 11 -6 0 -11 10 -11 21 0 17 3 19 14 10 22
-18 27 -61 7 -61 -13 -1 -13 -3 3 -15 11 -8 17 -15 13 -15 -4 0 0 -14 8 -31
18 -34 10 -56 -9 -24 -19 33 -73 85 -89 85 -26 0 -58 -34 -67 -70 -7 -29 -9
-23 -8 36 1 39 -2 75 -5 81 -8 12 1 23 16 20 6 -1 19 -10 29 -19z"/>
<path d="M2516 613 c-6 -51 -25 -327 -26 -360 0 -9 18 -13 55 -13 l55 0 0 110
c0 61 -3 110 -7 110 -16 0 -30 -47 -20 -65 6 -12 5 -21 -3 -28 -10 -9 -11 -9
-6 1 4 7 3 18 -2 25 -12 15 -12 47 0 47 5 0 4 10 -3 21 -7 13 -9 44 -5 78 3
31 5 62 6 69 0 8 9 12 22 10 16 -2 30 -18 46 -53 33 -69 60 -97 83 -85 17 10
33 48 42 100 2 14 5 -34 6 -105 1 -100 -2 -135 -14 -151 -8 -12 -11 -25 -7
-29 4 -4 -1 -6 -12 -4 -10 2 -23 14 -27 27 -7 17 -6 22 4 19 6 -2 11 -10 9
-17 -2 -11 0 -10 13 0 16 13 16 15 -2 21 -11 5 -13 8 -4 8 11 1 10 5 -4 21
-10 11 -22 17 -28 13 -6 -4 -8 0 -4 10 5 12 1 17 -13 17 -11 0 -20 5 -20 11 0
6 7 9 14 6 10 -4 13 -1 10 8 -3 8 -12 11 -20 8 -8 -3 -14 1 -14 10 0 8 -7 21
-17 28 -15 13 -16 11 -9 -16 3 -16 23 -74 43 -127 l36 -98 53 0 54 0 2 175 c1
96 2 192 3 213 l0 37 -47 3 -48 3 0 -90 c0 -50 -4 -91 -8 -91 -4 0 -18 32 -31
71 -29 89 -48 109 -105 109 l-44 0 -6 -57z"/>
</g>
</svg>
