<svg width="123" height="123" viewBox="0 0 123 123" fill="none" xmlns="http://www.w3.org/2000/svg">
<path d="M60.4871 121.974L1.02185 121.974L1.02185 0.657776L60.4871 0.657776L60.4871 121.974Z" fill="white"/>
<path d="M0.831329 122.163H60.6753V0.468018H0.831329V122.163ZM60.2963 121.784H1.21028V0.84697H60.2963V121.784Z" fill="#292A2E"/>
<path d="M5.43382 5.53687H56.0759V16.8998H5.43382V5.53687Z" fill="#F6D549"/>
<g opacity="0.5">
<path d="M5.43217 5.53687H56.0742V16.8998H5.43217V5.53687Z" fill="white"/>
</g>
<path d="M5.4325 17.0893H56.0746C56.1248 17.0893 56.173 17.0693 56.2085 17.0338C56.2441 16.9982 56.264 16.95 56.264 16.8998V5.53689C56.264 5.48664 56.2441 5.43844 56.2085 5.40291C56.173 5.36738 56.1248 5.34741 56.0746 5.34741H5.4325C5.38225 5.34741 5.33406 5.36738 5.29853 5.40291C5.26299 5.43844 5.24303 5.48664 5.24303 5.53689V16.8998C5.24303 16.95 5.26299 16.9982 5.29853 17.0338C5.33406 17.0693 5.38225 17.0893 5.4325 17.0893ZM55.8851 16.7103H5.62198V5.72636H55.8851V16.7103Z" fill="#292A2E"/>
<path d="M50.3378 13.5495C49.0504 13.5495 48.0067 12.5058 48.0067 11.2183C48.0067 9.93089 49.0504 8.88721 50.3378 8.88721C51.6253 8.88721 52.6689 9.93089 52.6689 11.2183C52.6689 12.5058 51.6253 13.5495 50.3378 13.5495Z" fill="white"/>
<path d="M50.3371 13.7388C50.8355 13.7388 51.3227 13.591 51.7371 13.3141C52.1516 13.0372 52.4746 12.6436 52.6653 12.1831C52.856 11.7227 52.9059 11.216 52.8087 10.7271C52.7115 10.2383 52.4714 9.78926 52.119 9.43683C51.7666 9.0844 51.3176 8.84439 50.8287 8.74715C50.3399 8.64992 49.8332 8.69982 49.3727 8.89056C48.9122 9.08129 48.5187 9.40429 48.2418 9.81871C47.9649 10.2331 47.8171 10.7204 47.8171 11.2188C47.818 11.8868 48.0837 12.5273 48.5561 12.9997C49.0286 13.4721 49.669 13.7379 50.3371 13.7388ZM50.3371 9.07768C50.7605 9.07768 51.1745 9.20326 51.5266 9.43852C51.8787 9.67379 52.1531 10.0082 52.3152 10.3994C52.4772 10.7906 52.5196 11.2211 52.437 11.6365C52.3544 12.0518 52.1505 12.4333 51.8511 12.7327C51.5516 13.0322 51.1701 13.2361 50.7548 13.3187C50.3395 13.4013 49.909 13.3589 49.5177 13.1969C49.1265 13.0348 48.7921 12.7604 48.5568 12.4083C48.3216 12.0562 48.196 11.6422 48.196 11.2188C48.1965 10.651 48.4222 10.1066 48.8236 9.70501C49.225 9.30344 49.7693 9.07749 50.3371 9.07674V9.07768Z" fill="#292A2E"/>
<path d="M16.009 11.1734H44.9947C45.045 11.1734 45.0932 11.1534 45.1287 11.1179C45.1642 11.0824 45.1842 11.0342 45.1842 10.9839C45.1842 10.9337 45.1642 10.8855 45.1287 10.8499C45.0932 10.8144 45.045 10.7944 44.9947 10.7944H16.009C15.9588 10.7944 15.9106 10.8144 15.8751 10.8499C15.8395 10.8855 15.8196 10.9337 15.8196 10.9839C15.8196 11.0342 15.8395 11.0824 15.8751 11.1179C15.9106 11.1534 15.9588 11.1734 16.009 11.1734Z" fill="#292A2E"/>
<path d="M11.7476 11.1734H12.349C12.3993 11.1734 12.4475 11.1534 12.483 11.1179C12.5185 11.0824 12.5385 11.0342 12.5385 10.9839C12.5385 10.9337 12.5185 10.8855 12.483 10.8499C12.4475 10.8144 12.3993 10.7944 12.349 10.7944H11.7476C11.6974 10.7944 11.6492 10.8144 11.6137 10.8499C11.5781 10.8855 11.5582 10.9337 11.5582 10.9839C11.5582 11.0342 11.5781 11.0824 11.6137 11.1179C11.6492 11.1534 11.6974 11.1734 11.7476 11.1734Z" fill="#292A2E"/>
<path d="M13.8601 11.1734H14.4616C14.5119 11.1734 14.5601 11.1534 14.5956 11.1179C14.6312 11.0824 14.6511 11.0342 14.6511 10.9839C14.6511 10.9337 14.6312 10.8855 14.5956 10.8499C14.5601 10.8144 14.5119 10.7944 14.4616 10.7944H13.8601C13.8098 10.7944 13.7616 10.8144 13.7261 10.8499C13.6905 10.8855 13.6706 10.9337 13.6706 10.9839C13.6706 11.0342 13.6905 11.0824 13.7261 11.1179C13.7616 11.1534 13.8098 11.1734 13.8601 11.1734Z" fill="#292A2E"/>
<path d="M9.49434 11.1734H10.0959C10.1462 11.1734 10.1944 11.1534 10.2299 11.1179C10.2654 11.0824 10.2854 11.0342 10.2854 10.9839C10.2854 10.9337 10.2654 10.8855 10.2299 10.8499C10.1944 10.8144 10.1462 10.7944 10.0959 10.7944H9.49434C9.44409 10.7944 9.3959 10.8144 9.36036 10.8499C9.32483 10.8855 9.30486 10.9337 9.30486 10.9839C9.30486 11.0342 9.32483 11.0824 9.36036 11.1179C9.3959 11.1534 9.44409 11.1734 9.49434 11.1734Z" fill="#292A2E"/>
<path d="M5.43382 21.3113H56.0759V32.6742H5.43382V21.3113Z" fill="#F6D549"/>
<g opacity="0.5">
<path d="M5.43217 21.3113H56.0742V32.6742H5.43217V21.3113Z" fill="white"/>
</g>
<path d="M5.4325 32.8636H56.0746C56.1248 32.8636 56.173 32.8437 56.2085 32.8081C56.2441 32.7726 56.264 32.7244 56.264 32.6742V21.3103C56.264 21.2601 56.2441 21.2119 56.2085 21.1763C56.173 21.1408 56.1248 21.1208 56.0746 21.1208H5.4325C5.38225 21.1208 5.33406 21.1408 5.29853 21.1763C5.26299 21.2119 5.24303 21.2601 5.24303 21.3103V32.6732C5.2429 32.6982 5.24771 32.7229 5.25718 32.746C5.26665 32.7691 5.28058 32.7901 5.29819 32.8078C5.3158 32.8255 5.33672 32.8395 5.35977 32.8491C5.38282 32.8587 5.40754 32.8636 5.4325 32.8636ZM55.8851 32.4847H5.62198V21.4998H55.8851V32.4847Z" fill="#292A2E"/>
<path d="M50.3378 29.3241C49.0504 29.3241 48.0067 28.2804 48.0067 26.993C48.0067 25.7055 49.0504 24.6619 50.3378 24.6619C51.6253 24.6619 52.6689 25.7055 52.6689 26.993C52.6689 28.2804 51.6253 29.3241 50.3378 29.3241Z" fill="white"/>
<path d="M50.3371 29.5135C50.8355 29.5135 51.3227 29.3657 51.7371 29.0888C52.1516 28.8118 52.4746 28.4183 52.6653 27.9578C52.856 27.4973 52.9059 26.9906 52.8087 26.5018C52.7115 26.013 52.4714 25.5639 52.119 25.2115C51.7666 24.8591 51.3176 24.619 50.8287 24.5218C50.3399 24.4246 49.8332 24.4745 49.3727 24.6652C48.9122 24.856 48.5187 25.179 48.2418 25.5934C47.9649 26.0078 47.8171 26.495 47.8171 26.9934C47.818 27.6615 48.0837 28.302 48.5561 28.7744C49.0286 29.2468 49.669 29.5126 50.3371 29.5135ZM50.3371 24.8523C50.7605 24.8523 51.1745 24.9779 51.5266 25.2132C51.8787 25.4484 52.1531 25.7828 52.3152 26.1741C52.4772 26.5653 52.5196 26.9958 52.437 27.4111C52.3544 27.8265 52.1505 28.208 51.8511 28.5074C51.5516 28.8068 51.1701 29.0107 50.7548 29.0934C50.3395 29.176 49.909 29.1336 49.5177 28.9715C49.1265 28.8095 48.7921 28.535 48.5568 28.1829C48.3216 27.8308 48.196 27.4169 48.196 26.9934C48.1965 26.4256 48.4222 25.8812 48.8236 25.4797C49.225 25.0781 49.7693 24.8522 50.3371 24.8514V24.8523Z" fill="#292A2E"/>
<path d="M16.009 26.9483H44.9947C45.045 26.9483 45.0932 26.9283 45.1287 26.8928C45.1642 26.8573 45.1842 26.8091 45.1842 26.7588C45.1842 26.7086 45.1642 26.6604 45.1287 26.6248C45.0932 26.5893 45.045 26.5693 44.9947 26.5693H16.009C15.9588 26.5693 15.9106 26.5893 15.8751 26.6248C15.8395 26.6604 15.8196 26.7086 15.8196 26.7588C15.8196 26.8091 15.8395 26.8573 15.8751 26.8928C15.9106 26.9283 15.9588 26.9483 16.009 26.9483Z" fill="#292A2E"/>
<path d="M11.7476 26.9483H12.349C12.3993 26.9483 12.4475 26.9283 12.483 26.8928C12.5185 26.8573 12.5385 26.8091 12.5385 26.7588C12.5385 26.7086 12.5185 26.6604 12.483 26.6248C12.4475 26.5893 12.3993 26.5693 12.349 26.5693H11.7476C11.6974 26.5693 11.6492 26.5893 11.6137 26.6248C11.5781 26.6604 11.5582 26.7086 11.5582 26.7588C11.5582 26.8091 11.5781 26.8573 11.6137 26.8928C11.6492 26.9283 11.6974 26.9483 11.7476 26.9483Z" fill="#292A2E"/>
<path d="M13.8601 26.9483H14.4616C14.5119 26.9483 14.5601 26.9283 14.5956 26.8928C14.6312 26.8573 14.6511 26.8091 14.6511 26.7588C14.6511 26.7086 14.6312 26.6604 14.5956 26.6248C14.5601 26.5893 14.5119 26.5693 14.4616 26.5693H13.8601C13.8098 26.5693 13.7616 26.5893 13.7261 26.6248C13.6905 26.6604 13.6706 26.7086 13.6706 26.7588C13.6706 26.8091 13.6905 26.8573 13.7261 26.8928C13.7616 26.9283 13.8098 26.9483 13.8601 26.9483Z" fill="#292A2E"/>
<path d="M9.49434 26.9483H10.0959C10.1462 26.9483 10.1944 26.9283 10.2299 26.8928C10.2654 26.8573 10.2854 26.8091 10.2854 26.7588C10.2854 26.7086 10.2654 26.6604 10.2299 26.6248C10.1944 26.5893 10.1462 26.5693 10.0959 26.5693H9.49434C9.44409 26.5693 9.3959 26.5893 9.36036 26.6248C9.32483 26.6604 9.30486 26.7086 9.30486 26.7588C9.30486 26.8091 9.32483 26.8573 9.36036 26.8928C9.3959 26.9283 9.44409 26.9483 9.49434 26.9483Z" fill="#292A2E"/>
<path d="M5.43382 37.0857H56.0759V48.4486H5.43382V37.0857Z" fill="#F6D549"/>
<g opacity="0.5">
<path d="M5.43217 37.0859H56.0742V48.4488H5.43217V37.0859Z" fill="white"/>
</g>
<path d="M5.4325 48.6381H56.0746C56.1248 48.6381 56.173 48.6181 56.2085 48.5826C56.2441 48.5471 56.264 48.4989 56.264 48.4486V37.0857C56.264 37.0355 56.2441 36.9873 56.2085 36.9517C56.173 36.9162 56.1248 36.8962 56.0746 36.8962H5.4325C5.38225 36.8962 5.33406 36.9162 5.29853 36.9517C5.26299 36.9873 5.24303 37.0355 5.24303 37.0857V48.4486C5.24303 48.4989 5.26299 48.5471 5.29853 48.5826C5.33406 48.6181 5.38225 48.6381 5.4325 48.6381ZM55.8851 48.2591H5.62198V37.2752H55.8851V48.2591Z" fill="#292A2E"/>
<path d="M50.3378 45.0983C49.0504 45.0983 48.0067 44.0546 48.0067 42.7672C48.0067 41.4797 49.0504 40.436 50.3378 40.436C51.6253 40.436 52.6689 41.4797 52.6689 42.7672C52.6689 44.0546 51.6253 45.0983 50.3378 45.0983Z" fill="white"/>
<path d="M50.3371 45.2876C50.8355 45.2876 51.3227 45.1398 51.7371 44.8629C52.1516 44.586 52.4746 44.1924 52.6653 43.732C52.856 43.2715 52.9059 42.7648 52.8087 42.276C52.7115 41.7871 52.4714 41.3381 52.119 40.9857C51.7666 40.6332 51.3176 40.3932 50.8287 40.296C50.3399 40.1987 49.8332 40.2486 49.3727 40.4394C48.9122 40.6301 48.5187 40.9531 48.2418 41.3675C47.9649 41.782 47.8171 42.2692 47.8171 42.7676C47.818 43.4357 48.0837 44.0761 48.5561 44.5485C49.0286 45.0209 49.669 45.2867 50.3371 45.2876ZM50.3371 40.6256C50.7605 40.6256 51.1745 40.7511 51.5266 40.9864C51.8787 41.2217 52.1531 41.5561 52.3152 41.9473C52.4772 42.3385 52.5196 42.769 52.437 43.1843C52.3544 43.5997 52.1505 43.9812 51.8511 44.2806C51.5516 44.5801 51.1701 44.784 50.7548 44.8666C50.3395 44.9492 49.909 44.9068 49.5177 44.7447C49.1265 44.5827 48.7921 44.3083 48.5568 43.9562C48.3216 43.6041 48.196 43.1901 48.196 42.7666C48.1968 42.199 48.4226 41.6549 48.8239 41.2535C49.2253 40.8521 49.7695 40.6263 50.3371 40.6256Z" fill="#292A2E"/>
<path d="M16.009 42.7227H44.9947C45.045 42.7227 45.0932 42.7027 45.1287 42.6672C45.1642 42.6317 45.1842 42.5835 45.1842 42.5332C45.1842 42.483 45.1642 42.4348 45.1287 42.3992C45.0932 42.3637 45.045 42.3438 44.9947 42.3438H16.009C15.9588 42.3438 15.9106 42.3637 15.8751 42.3992C15.8395 42.4348 15.8196 42.483 15.8196 42.5332C15.8196 42.5835 15.8395 42.6317 15.8751 42.6672C15.9106 42.7027 15.9588 42.7227 16.009 42.7227Z" fill="#292A2E"/>
<path d="M11.7476 42.7227H12.349C12.3993 42.7227 12.4475 42.7027 12.483 42.6672C12.5185 42.6317 12.5385 42.5835 12.5385 42.5332C12.5385 42.483 12.5185 42.4348 12.483 42.3992C12.4475 42.3637 12.3993 42.3438 12.349 42.3438H11.7476C11.6974 42.3438 11.6492 42.3637 11.6137 42.3992C11.5781 42.4348 11.5582 42.483 11.5582 42.5332C11.5582 42.5835 11.5781 42.6317 11.6137 42.6672C11.6492 42.7027 11.6974 42.7227 11.7476 42.7227Z" fill="#292A2E"/>
<path d="M13.8601 42.7227H14.4616C14.5119 42.7227 14.5601 42.7027 14.5956 42.6672C14.6312 42.6317 14.6511 42.5835 14.6511 42.5332C14.6511 42.483 14.6312 42.4348 14.5956 42.3992C14.5601 42.3637 14.5119 42.3438 14.4616 42.3438H13.8601C13.8098 42.3438 13.7616 42.3637 13.7261 42.3992C13.6905 42.4348 13.6706 42.483 13.6706 42.5332C13.6706 42.5835 13.6905 42.6317 13.7261 42.6672C13.7616 42.7027 13.8098 42.7227 13.8601 42.7227Z" fill="#292A2E"/>
<path d="M9.49434 42.7227H10.0959C10.1462 42.7227 10.1944 42.7027 10.2299 42.6672C10.2654 42.6317 10.2854 42.5835 10.2854 42.5332C10.2854 42.483 10.2654 42.4348 10.2299 42.3992C10.1944 42.3637 10.1462 42.3438 10.0959 42.3438H9.49434C9.44409 42.3438 9.3959 42.3637 9.36036 42.3992C9.32483 42.4348 9.30486 42.483 9.30486 42.5332C9.30486 42.5835 9.32483 42.6317 9.36036 42.6672C9.3959 42.7027 9.44409 42.7227 9.49434 42.7227Z" fill="#292A2E"/>
<path d="M5.43201 64.4127H56.0741C56.1243 64.4127 56.1725 64.3928 56.2081 64.3572C56.2436 64.3217 56.2635 64.2735 56.2635 64.2233V52.8604C56.2635 52.8101 56.2436 52.7619 56.2081 52.7264C56.1725 52.6909 56.1243 52.6709 56.0741 52.6709H5.43201C5.38176 52.6709 5.33357 52.6909 5.29804 52.7264C5.2625 52.7619 5.24254 52.8101 5.24254 52.8604V64.2233C5.24254 64.2735 5.2625 64.3217 5.29804 64.3572C5.33357 64.3928 5.38176 64.4127 5.43201 64.4127ZM55.8846 64.0338H5.62149V53.0499H55.8846V64.0338Z" fill="#292A2E"/>
<path d="M24.8589 52.8604H77.3957V64.2232H24.8589V52.8604Z" fill="#F6D549"/>
<g opacity="0.5">
<path d="M24.855 52.8604H77.3918V64.2232H24.855V52.8604Z" fill="white"/>
</g>
<path d="M24.8579 64.4127H77.3944C77.4446 64.4127 77.4928 64.3928 77.5284 64.3572C77.5639 64.3217 77.5839 64.2735 77.5839 64.2233V52.8604C77.5839 52.8101 77.5639 52.7619 77.5284 52.7264C77.4928 52.6909 77.4446 52.6709 77.3944 52.6709H24.8579C24.8077 52.6709 24.7595 52.6909 24.724 52.7264C24.6884 52.7619 24.6685 52.8101 24.6685 52.8604V64.2233C24.6685 64.2735 24.6884 64.3217 24.724 64.3572C24.7595 64.3928 24.8077 64.4127 24.8579 64.4127ZM77.2053 64.0338H25.0474V53.0499H77.2049L77.2053 64.0338Z" fill="#292A2E"/>
<path d="M71.6554 60.8729C70.368 60.8729 69.3243 59.8293 69.3243 58.5418C69.3243 57.2544 70.368 56.2107 71.6554 56.2107C72.9429 56.2107 73.9866 57.2544 73.9866 58.5418C73.9866 59.8293 72.9429 60.8729 71.6554 60.8729Z" fill="white"/>
<path d="M71.6547 61.0625C72.1531 61.0625 72.6403 60.9147 73.0548 60.6378C73.4692 60.3609 73.7922 59.9673 73.9829 59.5069C74.1736 59.0464 74.2236 58.5397 74.1263 58.0509C74.0291 57.562 73.7891 57.113 73.4366 56.7606C73.0842 56.4081 72.6352 56.1681 72.1463 56.0709C71.6575 55.9736 71.1508 56.0236 70.6903 56.2143C70.2299 56.405 69.8363 56.728 69.5594 57.1424C69.2825 57.5569 69.1347 58.0441 69.1347 58.5425C69.1356 59.2106 69.4014 59.851 69.8738 60.3234C70.3462 60.7958 70.9866 61.0616 71.6547 61.0625ZM71.6547 56.4014C72.0782 56.4014 72.4921 56.527 72.8442 56.7623C73.1963 56.9975 73.4708 57.3319 73.6328 57.7231C73.7949 58.1144 73.8373 58.5449 73.7546 58.9602C73.672 59.3755 73.4681 59.757 73.1687 60.0565C72.8692 60.3559 72.4877 60.5598 72.0724 60.6424C71.6571 60.7251 71.2266 60.6827 70.8354 60.5206C70.4441 60.3585 70.1097 60.0841 69.8745 59.732C69.6392 59.3799 69.5136 58.966 69.5136 58.5425C69.514 57.9746 69.7397 57.4301 70.1411 57.0285C70.5425 56.6268 71.0869 56.4008 71.6547 56.4001V56.4014Z" fill="#292A2E"/>
<path d="M35.4343 58.4974H66.3146C66.3648 58.4974 66.413 58.4774 66.4485 58.4419C66.4841 58.4063 66.504 58.3581 66.504 58.3079C66.504 58.2576 66.4841 58.2094 66.4485 58.1739C66.413 58.1384 66.3648 58.1184 66.3146 58.1184H35.4343C35.384 58.1184 35.3358 58.1384 35.3003 58.1739C35.2648 58.2094 35.2448 58.2576 35.2448 58.3079C35.2448 58.3581 35.2648 58.4063 35.3003 58.4419C35.3358 58.4774 35.384 58.4974 35.4343 58.4974Z" fill="#292A2E"/>
<path d="M31.1747 58.4974H31.7763C31.8265 58.4974 31.8747 58.4774 31.9103 58.4419C31.9458 58.4063 31.9658 58.3581 31.9658 58.3079C31.9658 58.2576 31.9458 58.2094 31.9103 58.1739C31.8747 58.1384 31.8265 58.1184 31.7763 58.1184H31.1747C31.1244 58.1184 31.0763 58.1384 31.0407 58.1739C31.0052 58.2094 30.9852 58.2576 30.9852 58.3079C30.9852 58.3581 31.0052 58.4063 31.0407 58.4419C31.0763 58.4774 31.1244 58.4974 31.1747 58.4974Z" fill="#292A2E"/>
<path d="M33.2848 58.4974H33.8862C33.9365 58.4974 33.9847 58.4774 34.0202 58.4419C34.0557 58.4063 34.0757 58.3581 34.0757 58.3079C34.0757 58.2576 34.0557 58.2094 34.0202 58.1739C33.9847 58.1384 33.9365 58.1184 33.8862 58.1184H33.2848C33.2346 58.1184 33.1864 58.1384 33.1508 58.1739C33.1153 58.2094 33.0953 58.2576 33.0953 58.3079C33.0953 58.3581 33.1153 58.4063 33.1508 58.4419C33.1864 58.4774 33.2346 58.4974 33.2848 58.4974Z" fill="#292A2E"/>
<path d="M28.9169 58.4974H29.5179C29.5682 58.4974 29.6164 58.4774 29.6519 58.4419C29.6874 58.4063 29.7074 58.3581 29.7074 58.3079C29.7074 58.2576 29.6874 58.2094 29.6519 58.1739C29.6164 58.1384 29.5682 58.1184 29.5179 58.1184H28.9163C28.8661 58.1184 28.8179 58.1384 28.7824 58.1739C28.7468 58.2094 28.7269 58.2576 28.7269 58.3079C28.7269 58.3581 28.7468 58.4063 28.7824 58.4419C28.8179 58.4774 28.8661 58.4974 28.9163 58.4974H28.9169Z" fill="#292A2E"/>
<path d="M5.43382 68.6345H56.0759V79.9974H5.43382V68.6345Z" fill="#F6D549"/>
<g opacity="0.5">
<path d="M5.43217 68.6345H56.0742V79.9974H5.43217V68.6345Z" fill="white"/>
</g>
<path d="M5.4325 80.1869H56.0746C56.1248 80.1869 56.173 80.1669 56.2085 80.1314C56.2441 80.0959 56.264 80.0477 56.264 79.9974V68.6345C56.264 68.5843 56.2441 68.5361 56.2085 68.5006C56.173 68.465 56.1248 68.4451 56.0746 68.4451H5.4325C5.38225 68.4451 5.33406 68.465 5.29853 68.5006C5.26299 68.5361 5.24303 68.5843 5.24303 68.6345V79.9974C5.24303 80.0477 5.26299 80.0959 5.29853 80.1314C5.33406 80.1669 5.38225 80.1869 5.4325 80.1869ZM55.8851 79.808H5.62198V68.824H55.8851V79.808Z" fill="#292A2E"/>
<path d="M50.3378 76.6471C49.0504 76.6471 48.0067 75.6034 48.0067 74.316C48.0067 73.0285 49.0504 71.9849 50.3378 71.9849C51.6253 71.9849 52.6689 73.0285 52.6689 74.316C52.6689 75.6034 51.6253 76.6471 50.3378 76.6471Z" fill="white"/>
<path d="M50.3371 76.8365C50.8355 76.8365 51.3227 76.6887 51.7371 76.4117C52.1516 76.1348 52.4746 75.7413 52.6653 75.2808C52.856 74.8203 52.9059 74.3136 52.8087 73.8248C52.7115 73.3359 52.4714 72.8869 52.119 72.5345C51.7666 72.1821 51.3176 71.942 50.8287 71.8448C50.3399 71.7476 49.8332 71.7975 49.3727 71.9882C48.9122 72.1789 48.5187 72.5019 48.2418 72.9164C47.9649 73.3308 47.8171 73.818 47.8171 74.3164C47.818 74.9845 48.0837 75.6249 48.5561 76.0974C49.0286 76.5698 49.669 76.8355 50.3371 76.8365ZM50.3371 72.1744C50.7605 72.1744 51.1745 72.3 51.5266 72.5352C51.8787 72.7705 52.1531 73.1049 52.3152 73.4961C52.4772 73.8873 52.5196 74.3178 52.437 74.7332C52.3544 75.1485 52.1505 75.53 51.8511 75.8294C51.5516 76.1289 51.1701 76.3328 50.7548 76.4154C50.3395 76.498 49.909 76.4556 49.5177 76.2936C49.1265 76.1315 48.7921 75.8571 48.5568 75.505C48.3216 75.1529 48.196 74.7389 48.196 74.3155C48.1968 73.7479 48.4226 73.2037 48.8239 72.8023C49.2253 72.401 49.7695 72.1751 50.3371 72.1744Z" fill="#292A2E"/>
<path d="M16.009 74.2715H44.9947C45.045 74.2715 45.0932 74.2516 45.1287 74.216C45.1642 74.1805 45.1842 74.1323 45.1842 74.0821C45.1842 74.0318 45.1642 73.9836 45.1287 73.9481C45.0932 73.9125 45.045 73.8926 44.9947 73.8926H16.009C15.9588 73.8926 15.9106 73.9125 15.8751 73.9481C15.8395 73.9836 15.8196 74.0318 15.8196 74.0821C15.8196 74.1323 15.8395 74.1805 15.8751 74.216C15.9106 74.2516 15.9588 74.2715 16.009 74.2715Z" fill="#292A2E"/>
<path d="M11.7476 74.2715H12.349C12.3993 74.2715 12.4475 74.2516 12.483 74.216C12.5185 74.1805 12.5385 74.1323 12.5385 74.0821C12.5385 74.0318 12.5185 73.9836 12.483 73.9481C12.4475 73.9125 12.3993 73.8926 12.349 73.8926H11.7476C11.6974 73.8926 11.6492 73.9125 11.6137 73.9481C11.5781 73.9836 11.5582 74.0318 11.5582 74.0821C11.5582 74.1323 11.5781 74.1805 11.6137 74.216C11.6492 74.2516 11.6974 74.2715 11.7476 74.2715Z" fill="#292A2E"/>
<path d="M13.8601 74.2715H14.4616C14.5119 74.2715 14.5601 74.2516 14.5956 74.216C14.6312 74.1805 14.6511 74.1323 14.6511 74.0821C14.6511 74.0318 14.6312 73.9836 14.5956 73.9481C14.5601 73.9125 14.5119 73.8926 14.4616 73.8926H13.8601C13.8098 73.8926 13.7616 73.9125 13.7261 73.9481C13.6905 73.9836 13.6706 74.0318 13.6706 74.0821C13.6706 74.1323 13.6905 74.1805 13.7261 74.216C13.7616 74.2516 13.8098 74.2715 13.8601 74.2715Z" fill="#292A2E"/>
<path d="M9.49434 74.2715H10.0959C10.1462 74.2715 10.1944 74.2516 10.2299 74.216C10.2654 74.1805 10.2854 74.1323 10.2854 74.0821C10.2854 74.0318 10.2654 73.9836 10.2299 73.9481C10.1944 73.9125 10.1462 73.8926 10.0959 73.8926H9.49434C9.44409 73.8926 9.3959 73.9125 9.36036 73.9481C9.32483 73.9836 9.30486 74.0318 9.30486 74.0821C9.30486 74.1323 9.32483 74.1805 9.36036 74.216C9.3959 74.2516 9.44409 74.2715 9.49434 74.2715Z" fill="#292A2E"/>
<path d="M5.43382 84.4092H56.0759V95.7721H5.43382V84.4092Z" fill="#F6D549"/>
<g opacity="0.5">
<path d="M5.43217 84.4092H56.0742V95.7721H5.43217V84.4092Z" fill="white"/>
</g>
<path d="M5.4325 95.9616H56.0746C56.1248 95.9616 56.173 95.9416 56.2085 95.9061C56.2441 95.8705 56.264 95.8223 56.264 95.7721V84.4092C56.264 84.359 56.2441 84.3108 56.2085 84.2752C56.173 84.2397 56.1248 84.2197 56.0746 84.2197H5.4325C5.38225 84.2197 5.33406 84.2397 5.29853 84.2752C5.26299 84.3108 5.24303 84.359 5.24303 84.4092V95.7721C5.24303 95.8223 5.26299 95.8705 5.29853 95.9061C5.33406 95.9416 5.38225 95.9616 5.4325 95.9616ZM55.8851 95.5826H5.62198V84.5987H55.8851V95.5826Z" fill="#292A2E"/>
<path d="M50.3378 92.4215C49.0504 92.4215 48.0067 91.3778 48.0067 90.0904C48.0067 88.803 49.0504 87.7593 50.3378 87.7593C51.6253 87.7593 52.6689 88.803 52.6689 90.0904C52.6689 91.3778 51.6253 92.4215 50.3378 92.4215Z" fill="white"/>
<path d="M50.3371 92.6101C50.8355 92.6101 51.3227 92.4623 51.7371 92.1854C52.1516 91.9085 52.4746 91.515 52.6653 91.0545C52.856 90.594 52.9059 90.0873 52.8087 89.5985C52.7115 89.1096 52.4714 88.6606 52.119 88.3082C51.7666 87.9557 51.3176 87.7157 50.8287 87.6185C50.3399 87.5213 49.8332 87.5712 49.3727 87.7619C48.9122 87.9526 48.5187 88.2756 48.2418 88.6901C47.9649 89.1045 47.8171 89.5917 47.8171 90.0901C47.818 90.7582 48.0837 91.3986 48.5561 91.871C49.0286 92.3434 49.669 92.6092 50.3371 92.6101ZM50.3371 87.949C50.7605 87.949 51.1745 88.0746 51.5266 88.3099C51.8787 88.5451 52.1531 88.8795 52.3152 89.2707C52.4772 89.662 52.5196 90.0925 52.437 90.5078C52.3544 90.9231 52.1505 91.3046 51.8511 91.6041C51.5516 91.9035 51.1701 92.1074 50.7548 92.19C50.3395 92.2727 49.909 92.2303 49.5177 92.0682C49.1265 91.9062 48.7921 91.6317 48.5568 91.2796C48.3216 90.9275 48.196 90.5136 48.196 90.0901C48.1968 89.5225 48.4226 88.9783 48.8239 88.577C49.2253 88.1756 49.7695 87.9498 50.3371 87.949Z" fill="#292A2E"/>
<path d="M16.009 90.0462H44.9947C45.045 90.0462 45.0932 90.0262 45.1287 89.9907C45.1642 89.9552 45.1842 89.907 45.1842 89.8567C45.1842 89.8065 45.1642 89.7583 45.1287 89.7227C45.0932 89.6872 45.045 89.6672 44.9947 89.6672H16.009C15.9588 89.6672 15.9106 89.6872 15.8751 89.7227C15.8395 89.7583 15.8196 89.8065 15.8196 89.8567C15.8196 89.907 15.8395 89.9552 15.8751 89.9907C15.9106 90.0262 15.9588 90.0462 16.009 90.0462Z" fill="#292A2E"/>
<path d="M11.7476 90.0462H12.349C12.3993 90.0462 12.4475 90.0262 12.483 89.9907C12.5185 89.9552 12.5385 89.907 12.5385 89.8567C12.5385 89.8065 12.5185 89.7583 12.483 89.7227C12.4475 89.6872 12.3993 89.6672 12.349 89.6672H11.7476C11.6974 89.6672 11.6492 89.6872 11.6137 89.7227C11.5781 89.7583 11.5582 89.8065 11.5582 89.8567C11.5582 89.907 11.5781 89.9552 11.6137 89.9907C11.6492 90.0262 11.6974 90.0462 11.7476 90.0462Z" fill="#292A2E"/>
<path d="M13.8601 90.0462H14.4616C14.5119 90.0462 14.5601 90.0262 14.5956 89.9907C14.6312 89.9552 14.6511 89.907 14.6511 89.8567C14.6511 89.8065 14.6312 89.7583 14.5956 89.7227C14.5601 89.6872 14.5119 89.6672 14.4616 89.6672H13.8601C13.8098 89.6672 13.7616 89.6872 13.7261 89.7227C13.6905 89.7583 13.6706 89.8065 13.6706 89.8567C13.6706 89.907 13.6905 89.9552 13.7261 89.9907C13.7616 90.0262 13.8098 90.0462 13.8601 90.0462Z" fill="#292A2E"/>
<path d="M9.49434 90.0462H10.0959C10.1462 90.0462 10.1944 90.0262 10.2299 89.9907C10.2654 89.9552 10.2854 89.907 10.2854 89.8567C10.2854 89.8065 10.2654 89.7583 10.2299 89.7227C10.1944 89.6872 10.1462 89.6672 10.0959 89.6672H9.49434C9.44409 89.6672 9.3959 89.6872 9.36036 89.7227C9.32483 89.7583 9.30486 89.8065 9.30486 89.8567C9.30486 89.907 9.32483 89.9552 9.36036 89.9907C9.3959 90.0262 9.44409 90.0462 9.49434 90.0462Z" fill="#292A2E"/>
<path d="M5.43382 100.184H56.0759V111.546H5.43382V100.184Z" fill="#F6D549"/>
<g opacity="0.5">
<path d="M5.43217 100.184H56.0742V111.546H5.43217V100.184Z" fill="white"/>
</g>
<path d="M5.4325 111.736H56.0746C56.1248 111.736 56.173 111.716 56.2085 111.68C56.2441 111.645 56.264 111.597 56.264 111.547V100.184C56.264 100.133 56.2441 100.085 56.2085 100.05C56.173 100.014 56.1248 99.9941 56.0746 99.9941H5.4325C5.38225 99.9941 5.33406 100.014 5.29853 100.05C5.26299 100.085 5.24303 100.133 5.24303 100.184V111.547C5.24303 111.597 5.26299 111.645 5.29853 111.68C5.33406 111.716 5.38225 111.736 5.4325 111.736ZM55.8851 111.357H5.62198V100.373H55.8851V111.357Z" fill="#292A2E"/>
<path d="M50.3378 108.196C49.0504 108.196 48.0067 107.153 48.0067 105.865C48.0067 104.578 49.0504 103.534 50.3378 103.534C51.6253 103.534 52.6689 104.578 52.6689 105.865C52.6689 107.153 51.6253 108.196 50.3378 108.196Z" fill="white"/>
<path d="M50.3371 108.386C50.8355 108.386 51.3227 108.238 51.7371 107.961C52.1516 107.684 52.4746 107.29 52.6653 106.83C52.856 106.369 52.9059 105.863 52.8087 105.374C52.7115 104.885 52.4714 104.436 52.119 104.084C51.7666 103.731 51.3176 103.491 50.8287 103.394C50.3399 103.297 49.8332 103.347 49.3727 103.537C48.9122 103.728 48.5187 104.051 48.2418 104.465C47.9649 104.88 47.8171 105.367 47.8171 105.865C47.818 106.534 48.0837 107.174 48.5561 107.646C49.0286 108.119 49.669 108.385 50.3371 108.386ZM50.3371 103.723C50.7605 103.723 51.1745 103.849 51.5266 104.084C51.8787 104.32 52.1531 104.654 52.3152 105.045C52.4772 105.436 52.5196 105.867 52.437 106.282C52.3544 106.698 52.1505 107.079 51.8511 107.379C51.5516 107.678 51.1701 107.882 50.7548 107.964C50.3395 108.047 49.909 108.005 49.5177 107.843C49.1265 107.681 48.7921 107.406 48.5568 107.054C48.3216 106.702 48.196 106.288 48.196 105.865C48.1968 105.297 48.4226 104.753 48.8239 104.351C49.2253 103.95 49.7695 103.724 50.3371 103.723Z" fill="#292A2E"/>
<path d="M16.009 105.821H44.9947C45.045 105.821 45.0932 105.801 45.1287 105.765C45.1642 105.73 45.1842 105.681 45.1842 105.631C45.1842 105.581 45.1642 105.533 45.1287 105.497C45.0932 105.462 45.045 105.442 44.9947 105.442H16.009C15.9588 105.442 15.9106 105.462 15.8751 105.497C15.8395 105.533 15.8196 105.581 15.8196 105.631C15.8196 105.681 15.8395 105.73 15.8751 105.765C15.9106 105.801 15.9588 105.821 16.009 105.821Z" fill="#292A2E"/>
<path d="M11.7476 105.821H12.349C12.3993 105.821 12.4475 105.801 12.483 105.765C12.5185 105.73 12.5385 105.681 12.5385 105.631C12.5385 105.581 12.5185 105.533 12.483 105.497C12.4475 105.462 12.3993 105.442 12.349 105.442H11.7476C11.6974 105.442 11.6492 105.462 11.6137 105.497C11.5781 105.533 11.5582 105.581 11.5582 105.631C11.5582 105.681 11.5781 105.73 11.6137 105.765C11.6492 105.801 11.6974 105.821 11.7476 105.821Z" fill="#292A2E"/>
<path d="M13.8601 105.821H14.4616C14.5119 105.821 14.5601 105.801 14.5956 105.765C14.6312 105.73 14.6511 105.681 14.6511 105.631C14.6511 105.581 14.6312 105.533 14.5956 105.497C14.5601 105.462 14.5119 105.442 14.4616 105.442H13.8601C13.8098 105.442 13.7616 105.462 13.7261 105.497C13.6905 105.533 13.6706 105.581 13.6706 105.631C13.6706 105.681 13.6905 105.73 13.7261 105.765C13.7616 105.801 13.8098 105.821 13.8601 105.821Z" fill="#292A2E"/>
<path d="M9.49434 105.821H10.0959C10.1462 105.821 10.1944 105.801 10.2299 105.765C10.2654 105.73 10.2854 105.681 10.2854 105.631C10.2854 105.581 10.2654 105.533 10.2299 105.497C10.1944 105.462 10.1462 105.442 10.0959 105.442H9.49434C9.44409 105.442 9.3959 105.462 9.36036 105.497C9.32483 105.533 9.30486 105.581 9.30486 105.631C9.30486 105.681 9.32483 105.73 9.36036 105.765C9.3959 105.801 9.44409 105.821 9.49434 105.821Z" fill="#292A2E"/>
<path d="M113.591 112.017C113.591 112.017 115.71 115.149 113.398 117.754C111.086 120.358 113.578 121.784 113.578 121.784L122.973 112.389L118.279 107.696L113.591 112.017Z" fill="#367CFF"/>
<path d="M113.092 47.5876C113.092 47.5876 113.05 46.4714 113.059 49.0036C113.074 53.2084 112.674 64.3207 112.955 78.6424C113.18 90.0907 121.149 109.735 121.149 109.735L113.961 114.895C113.961 114.895 103.149 97.3579 101.433 79.9971C100.555 71.1107 98.758 47.2034 98.758 47.2034L113.092 47.5876Z" fill="#262626"/>
<path d="M90.9119 115.326C90.9119 115.326 90.1955 119.04 86.7186 119.246C83.2417 119.453 83.9958 122.223 83.9958 122.223H97.2823V115.585L90.9119 115.326Z" fill="#367CFF"/>
<path d="M89.2231 48.321C89.2231 48.321 88.1325 80.6023 88.2458 82.1804L89.2714 117.452L97.8577 117.611L99.2424 80.9049C99.2424 80.9049 100.15 70.7795 102.596 61.3775C103.848 56.5519 104.602 51.6105 104.845 46.6311L89.2231 48.321Z" fill="#262626"/>
<path d="M100.551 71.2083L99.8346 60.259C99.8346 60.259 99.0992 64.811 99.0992 68.7345C99.0992 70.6524 99.4943 78.2451 99.4943 78.2451L100.551 71.2083Z" fill="#0A0A0A"/>
<path d="M113.187 47.5867L113.216 47.5882C113.216 47.5882 113.195 47.0376 113.187 47.5867Z" fill="#333333"/>
<path d="M113.148 47.5864L113.177 47.5879C113.177 47.5879 113.156 47.0373 113.148 47.5864Z" fill="#333333"/>
<path d="M107.52 6.80688C107.52 6.80688 108.212 10.4931 109.209 11.7412C112.08 15.3346 113.299 19.6174 111.162 22.1863C109.025 24.7552 93.6561 26.625 91.8644 21.5176C90.356 17.2178 92.4031 16.4914 92.4795 12.7866C92.514 11.1101 92.7379 7.57597 92.7379 7.57597" fill="#0A0A0A"/>
<path d="M95.0534 19.5698C95.0801 19.5662 95.3766 24.4869 101.093 24.0579C105.051 23.7614 106.462 19.5628 106.552 19.5628C106.126 19.472 105.407 19.3402 105.217 19.239C104.594 18.9042 103.823 18.5569 103.622 17.3457C103.507 16.6483 103.703 13.0799 103.643 12.3743L97.5679 13.73C97.6528 15.2206 98.247 18.6753 96.1647 19.2873C95.8183 19.3883 95.445 19.4813 95.0534 19.5698Z" fill="#E98862"/>
<path opacity="0.52" d="M97.4825 17.8751C97.5777 17.5684 97.6389 17.2523 97.6652 16.9323C97.732 16.2021 97.7188 15.4668 97.6256 14.7395C98.8602 14.5728 100.023 14.0632 100.983 13.2686C101.096 13.6854 101.716 15.5053 101.544 15.9023C101.22 16.6494 99.6939 17.8751 97.4825 17.8751Z" fill="#0C0C0C"/>
<path d="M98.5605 16.686C100.967 16.6318 103.929 15.3129 104.188 12.0698L104.421 9.14355C104.68 5.90048 103.187 3.13545 100.133 2.89197C97.0796 2.64831 94.5874 5.0952 94.3287 8.33828L94.2253 9.63373C94.1262 10.878 94.2685 16.7829 98.5605 16.686Z" fill="#E98862"/>
<path d="M95.2355 10.3275C95.0272 10.3275 94.8583 10.1586 94.8583 9.95024C94.8583 9.7419 95.0272 9.573 95.2355 9.573C95.4439 9.573 95.6128 9.7419 95.6128 9.95024C95.6128 10.1586 95.4439 10.3275 95.2355 10.3275Z" fill="#0C0C0C"/>
<path d="M99.0499 10.3512C98.8415 10.3512 98.6726 10.1823 98.6726 9.97393C98.6726 9.76558 98.8415 9.59668 99.0499 9.59668C99.2582 9.59668 99.4271 9.76558 99.4271 9.97393C99.4271 10.1823 99.2582 10.3512 99.0499 10.3512Z" fill="#0C0C0C"/>
<path opacity="0.52" d="M97.1393 12.3816H97.1332C97.0095 12.3708 96.8864 12.3532 96.7645 12.329C96.5824 12.2911 96.342 12.2225 96.3549 12.0603C96.3695 11.8755 97.0347 9.92204 97.1107 9.69997C97.1138 9.69021 97.1189 9.68118 97.1256 9.6734C97.1323 9.66562 97.1405 9.65925 97.1496 9.65466C97.1588 9.65007 97.1688 9.64735 97.179 9.64666C97.1893 9.64597 97.1995 9.64732 97.2092 9.65064C97.2189 9.65396 97.2279 9.65918 97.2356 9.66599C97.2432 9.6728 97.2495 9.68108 97.2539 9.69032C97.2584 9.69957 97.2609 9.7096 97.2614 9.71985C97.262 9.73009 97.2604 9.74034 97.257 9.74999C96.9727 10.5818 96.518 11.9479 96.5089 12.0726C96.5349 12.127 96.8386 12.2028 97.1455 12.2274C97.1656 12.2288 97.1844 12.2379 97.1978 12.2529C97.2112 12.2679 97.2183 12.2875 97.2175 12.3076C97.2166 12.3277 97.208 12.3467 97.1934 12.3606C97.1788 12.3744 97.1594 12.3819 97.1393 12.3816Z" fill="#0C0C0C"/>
<path opacity="0.52" d="M97.7313 13.7061C97.2364 13.6953 96.7509 13.5684 96.314 13.3357C96.305 13.3311 96.2969 13.3248 96.2903 13.3171C96.2837 13.3094 96.2786 13.3004 96.2755 13.2908C96.2723 13.2811 96.2711 13.2709 96.2719 13.2608C96.2726 13.2507 96.2754 13.2408 96.28 13.2318C96.2846 13.2227 96.2909 13.2146 96.2986 13.208C96.3063 13.2014 96.3153 13.1964 96.3249 13.1932C96.3444 13.1869 96.3656 13.1885 96.3839 13.1978C97.3268 13.6768 98.2122 13.6752 98.9443 13.1934C98.959 13.1831 98.9743 13.1737 98.9902 13.1652C99.0085 13.1572 99.0291 13.1566 99.0478 13.1634C99.0666 13.1703 99.0819 13.1842 99.0906 13.2021C99.0994 13.2201 99.1008 13.2407 99.0947 13.2597C99.0886 13.2787 99.0754 13.2946 99.0578 13.3041C99.0521 13.3073 99.0425 13.3137 99.0292 13.323C98.6443 13.577 98.1924 13.7104 97.7313 13.7061Z" fill="#0C0C0C"/>
<path d="M106.923 9.885L104.188 9.68246C102.068 9.07954 101.074 5.6288 101.074 5.6288C101.074 5.6288 98.8656 8.30042 92.7379 7.577C92.7379 7.577 93.0377 -0.892591 102.134 0.580208C105.067 1.0539 107.42 3.70524 107.58 7.56942C107.692 10.277 106.923 9.885 106.923 9.885Z" fill="#0A0A0A"/>
<path d="M103.921 13.0427C104.849 13.1168 105.68 12.1842 105.754 11.2562C105.828 10.3281 105.117 9.75646 104.189 9.68237L103.661 10.266L103.123 12.9791L103.921 13.0427Z" fill="#E98862"/>
<path d="M96.399 8.23892C96.1152 8.09619 95.7982 8.03251 95.4813 8.05456C95.3253 8.06428 95.1716 8.0975 95.0255 8.15309C94.8806 8.20732 94.7431 8.27964 94.6164 8.36833C94.5982 8.37964 94.5852 8.39771 94.5804 8.41857C94.5755 8.43943 94.5791 8.46137 94.5904 8.47956C94.6017 8.49775 94.6198 8.5107 94.6407 8.51557C94.6615 8.52044 94.6835 8.51682 94.7016 8.50551L94.7071 8.50229C94.8251 8.42754 94.9519 8.36796 95.0848 8.32494C95.216 8.28171 95.353 8.25858 95.4912 8.25635C95.765 8.2499 96.0356 8.31592 96.2756 8.44773L96.2834 8.45227C96.3112 8.46679 96.3436 8.46996 96.3737 8.46112C96.4039 8.45229 96.4294 8.43213 96.445 8.40488C96.4606 8.37763 96.465 8.3454 96.4573 8.31495C96.4497 8.28451 96.4305 8.25821 96.4039 8.24157L96.399 8.23892Z" fill="#0C0C0C"/>
<path d="M98.8502 8.54405C99.1077 8.45091 99.3853 8.42745 99.6549 8.47603C99.791 8.4996 99.9227 8.54354 100.046 8.60639C100.17 8.66951 100.286 8.74793 100.392 8.83982L100.396 8.8438C100.412 8.8578 100.434 8.86478 100.455 8.86322C100.476 8.86166 100.496 8.85167 100.51 8.83547C100.524 8.81926 100.531 8.79816 100.53 8.7768C100.528 8.75545 100.518 8.73559 100.502 8.72159C100.39 8.61445 100.266 8.52176 100.131 8.44571C99.9948 8.36833 99.8479 8.31181 99.695 8.27803C99.3854 8.20754 99.0625 8.22168 98.7602 8.31896C98.7445 8.32348 98.7299 8.33112 98.7173 8.34141C98.7046 8.3517 98.6942 8.36443 98.6866 8.37885C98.679 8.39326 98.6744 8.40906 98.673 8.4253C98.6716 8.44154 98.6736 8.45788 98.6787 8.47336C98.6838 8.48884 98.6919 8.50313 98.7027 8.51539C98.7134 8.52764 98.7265 8.53761 98.7412 8.54468C98.7559 8.55176 98.7718 8.5558 98.7881 8.55657C98.8044 8.55734 98.8207 8.55482 98.8359 8.54917L98.8409 8.54746L98.8502 8.54405Z" fill="#0C0C0C"/>
<path opacity="0.52" d="M97.7031 14.4388C97.6136 14.4383 97.5243 14.4302 97.4361 14.4146C97.4176 14.4095 97.4017 14.3976 97.3914 14.3814C97.3811 14.3651 97.3773 14.3457 97.3806 14.3268C97.3839 14.3078 97.3942 14.2908 97.4093 14.279C97.4245 14.2673 97.4435 14.2615 97.4626 14.263C97.6007 14.2981 97.7446 14.3033 97.8848 14.2783C98.025 14.2533 98.1583 14.1987 98.2757 14.118C98.2833 14.1114 98.2922 14.1062 98.3018 14.103C98.3114 14.0997 98.3216 14.0984 98.3317 14.099C98.3522 14.1004 98.3713 14.1098 98.3848 14.1252C98.3983 14.1407 98.4052 14.1608 98.4038 14.1813C98.4025 14.2018 98.393 14.2209 98.3776 14.2344C98.1832 14.3785 97.9448 14.4507 97.7031 14.4388Z" fill="#0C0C0C"/>
<path d="M104.179 9.64898L104.198 9.57187C100.668 8.71922 101.139 5.2933 101.145 5.25882L101.066 5.24707C101.061 5.28212 100.577 8.77815 104.179 9.64898Z" fill="#0C0C0C"/>
<path opacity="0.1" d="M99.5795 12.3555C99.1826 12.3555 98.8609 12.1195 98.8609 11.8284C98.8609 11.5373 99.1826 11.3013 99.5795 11.3013C99.9765 11.3013 100.298 11.5373 100.298 11.8284C100.298 12.1195 99.9765 12.3555 99.5795 12.3555Z" fill="#0C0C0C"/>
<path opacity="0.1" d="M95.3069 11.7022C95.3069 11.993 94.9848 12.2289 94.5869 12.2295C94.5184 12.2295 94.45 12.2223 94.3829 12.2083C94.3238 11.8686 94.2834 11.54 94.2571 11.2344C94.3625 11.1943 94.4745 11.1742 94.5873 11.1751C94.9848 11.1745 95.3066 11.4104 95.3069 11.7022Z" fill="#0C0C0C"/>
<path d="M87.9548 30.4027C88.1348 32.518 89.0105 45.7153 89.1837 48.3209H113.042C113.177 45.9714 113.782 35.6952 114.293 31.0996C114.781 26.7146 115.738 24.5191 115.036 23.2227C113.89 21.1038 110.757 19.8794 108.621 19.5903C107.316 19.4137 105.354 19.2871 105.354 19.2871C105.354 19.2871 105.188 22.6477 101.227 22.8347C95.8347 23.0891 96.1947 19.2871 96.168 19.2871C95.2945 19.2871 90.3041 19.84 89.0833 20.5636C85.7568 22.5338 87.5724 25.9199 87.9548 30.4027Z" fill="#367CFF"/>
<path d="M69.8195 34.2707C69.7921 34.195 69.7494 34.1257 69.6943 34.0671C69.6392 34.0084 69.5727 33.9616 69.4988 33.9294C69.425 33.8973 69.3454 33.8806 69.2649 33.8802C69.1844 33.8798 69.1047 33.8959 69.0306 33.9274C68.8892 33.9933 68.7781 34.1104 68.7198 34.2551C68.6615 34.3998 68.6604 34.5612 68.7166 34.7067L68.9896 35.4593L67.2743 33.7102C67.0611 33.4864 66.6564 33.3481 66.4217 33.6037C66.2178 33.7979 65.7466 33.8576 65.67 34.2216C65.6674 34.2235 65.6721 37.5534 65.8699 37.7608C66.7089 38.6419 68.7369 38.8122 69.8679 38.3649L71.6489 37.6608L69.8195 34.2707Z" fill="#E98862"/>
<g opacity="0.1">
<path d="M69.819 34.2707C69.7916 34.195 69.749 34.1257 69.6938 34.0671C69.6387 34.0084 69.5722 33.9616 69.4984 33.9294C69.4245 33.8973 69.3449 33.8806 69.2644 33.8802C69.1839 33.8798 69.1042 33.8959 69.0301 33.9274C68.8887 33.9933 68.7776 34.1104 68.7193 34.2551C68.6611 34.3998 68.6599 34.5612 68.7161 34.7067L68.9891 35.4593L67.2738 33.7102C67.0606 33.4864 66.6559 33.3481 66.4212 33.6037C66.2173 33.7979 65.7461 33.8576 65.6695 34.2216C65.6669 34.2235 65.6716 37.5534 65.8694 37.7608C66.7084 38.6419 68.7364 38.8122 69.8674 38.3649L71.6484 37.6608L69.819 34.2707Z" fill="#0C0C0C"/>
</g>
<path d="M79.6058 26.6158L79.5821 27.8076C79.5773 27.9314 79.6013 28.0546 79.6523 28.1675C79.7033 28.2804 79.7799 28.3799 79.876 28.4582C79.9721 28.5364 80.0851 28.5912 80.206 28.6182C80.3269 28.6453 80.4524 28.6438 80.5727 28.614L92.8625 26.54C92.9828 26.5101 93.1083 26.5087 93.2293 26.5357C93.3502 26.5628 93.4632 26.6176 93.5592 26.6958C93.6553 26.7741 93.7319 26.8736 93.7829 26.9866C93.8339 27.0995 93.8579 27.2227 93.8531 27.3466L94.9882 43.0812C94.9685 43.3597 94.8566 43.6237 94.6701 43.8315C94.4837 44.0393 94.2333 44.179 93.9586 44.2287L70.0657 48.4351C69.9454 48.4649 69.8198 48.4664 69.6989 48.4393C69.5779 48.4123 69.465 48.3574 69.3688 48.2792C69.2727 48.201 69.1962 48.1014 69.1451 47.9885C69.0941 47.8756 69.0701 47.7523 69.0749 47.6285L68.5843 28.5696C68.604 28.2912 68.7159 28.0272 68.9024 27.8194C69.0888 27.6116 69.3392 27.4718 69.6139 27.4222L78.6156 25.8095C78.7358 25.7798 78.8613 25.7784 78.9821 25.8054C79.103 25.8325 79.2159 25.8873 79.3119 25.9655C79.408 26.0437 79.4845 26.1431 79.5355 26.256C79.5865 26.3688 79.6106 26.492 79.6058 26.6158Z" fill="#262626"/>
<path d="M69.8923 48.638C69.9603 48.6379 70.0282 48.6322 70.0952 48.6208L93.9903 44.4144C94.3076 44.3557 94.5963 44.1932 94.8111 43.9523C95.0258 43.7115 95.1544 43.406 95.1764 43.0841L94.0407 27.3324C94.0454 27.1894 94.0182 27.0471 93.9609 26.916C93.9037 26.7849 93.8179 26.6682 93.7098 26.5744C93.5885 26.4749 93.4468 26.4034 93.2946 26.3649C93.1425 26.3264 92.9838 26.3218 92.8297 26.3516L80.5397 28.4253C80.4407 28.4465 80.3381 28.4454 80.2395 28.4218C80.141 28.3983 80.0489 28.353 79.9702 28.2892C79.9031 28.2293 79.8502 28.1551 79.8156 28.0721C79.781 27.989 79.7655 27.8993 79.7703 27.8095L79.794 26.6176C79.8001 26.472 79.7735 26.3268 79.7162 26.1928C79.6588 26.0588 79.5722 25.9394 79.4626 25.8433C79.3412 25.7438 79.1994 25.6723 79.0472 25.6338C78.8951 25.5953 78.7363 25.5907 78.5823 25.6204L69.5787 27.2336C69.2601 27.2893 68.9696 27.451 68.7544 27.6925C68.5392 27.9339 68.4119 28.241 68.3932 28.5639L68.8839 47.6311C68.8786 47.7753 68.9056 47.9189 68.9628 48.0514C69.0201 48.1839 69.1062 48.3019 69.2149 48.3968C69.4044 48.556 69.6449 48.6417 69.8923 48.638ZM93.0368 26.7139C93.192 26.7102 93.3432 26.7629 93.4624 26.8623C93.5294 26.9222 93.5822 26.9965 93.6168 27.0795C93.6514 27.1626 93.6669 27.2524 93.6623 27.3422L94.7974 43.0941C94.7764 43.3259 94.6797 43.5442 94.5221 43.7155C94.3646 43.8867 94.155 44.0013 93.9258 44.0415L70.031 48.2479C69.9321 48.2689 69.8297 48.2675 69.7314 48.2439C69.633 48.2203 69.5412 48.175 69.4626 48.1114C69.3955 48.0515 69.3428 47.9773 69.3082 47.8943C69.2737 47.8112 69.2582 47.7215 69.2629 47.6317L68.7721 28.5643C68.7915 28.3311 68.8875 28.1109 69.0451 27.938C69.2028 27.7651 69.4133 27.6493 69.6437 27.6086L78.6472 25.9954C78.7462 25.9746 78.8485 25.976 78.9468 25.9996C79.0451 26.0232 79.137 26.0684 79.2157 26.1318C79.2827 26.1918 79.3355 26.2661 79.3701 26.3491C79.4048 26.4322 79.4204 26.5219 79.4158 26.6118L79.3921 27.8034C79.3859 27.949 79.4124 28.0942 79.4697 28.2282C79.5271 28.3622 79.6137 28.4817 79.7233 28.5778C79.8445 28.6774 79.9863 28.749 80.1384 28.7876C80.2906 28.8261 80.4493 28.8305 80.6034 28.8006L92.8934 26.7268C92.9408 26.7185 92.9887 26.7142 93.0368 26.7139Z" fill="#292A2E"/>
<path d="M72.2585 44.4703L91.7361 41.9905L88.504 16.606L72.7521 18.6116L69.5227 22.9828L72.2585 44.4703Z" fill="white"/>
<path d="M72.2593 44.6599C72.2673 44.6599 72.2753 44.6594 72.2832 44.6584L91.7613 42.1783C91.8112 42.172 91.8565 42.1461 91.8873 42.1064C91.918 42.0667 91.9318 42.0163 91.9254 41.9665L88.6935 16.5818C88.687 16.532 88.6612 16.4867 88.6215 16.4558C88.5816 16.4255 88.5313 16.4119 88.4815 16.4179L72.7296 18.4237C72.7042 18.427 72.6796 18.4355 72.6575 18.4485C72.6354 18.4615 72.6162 18.4789 72.6009 18.4995L69.3715 22.8707C69.3426 22.91 69.3299 22.9588 69.3359 23.0071L72.0719 44.4949C72.0777 44.5406 72.1 44.5827 72.1346 44.6132C72.1692 44.6437 72.2138 44.6605 72.2599 44.6605L72.2593 44.6599ZM91.5251 41.8265L72.4232 44.2586L69.7211 23.0344L72.8571 18.7902L88.3409 16.8183L91.5251 41.8265Z" fill="#292A2E"/>
<path d="M72.7585 18.6116L73.2474 22.4505L69.5291 22.9828L72.7585 18.6116Z" fill="white"/>
<path d="M69.5278 23.1723C69.5367 23.1723 69.5457 23.1717 69.5545 23.1704L73.2728 22.6382C73.3221 22.6312 73.3666 22.6051 73.3967 22.5655C73.4269 22.5259 73.4403 22.4761 73.434 22.4267L72.9452 18.5878C72.9406 18.5501 72.9247 18.5146 72.8997 18.486C72.8746 18.4574 72.8416 18.437 72.8048 18.4275C72.768 18.4179 72.7292 18.4196 72.6934 18.4324C72.6577 18.4452 72.6265 18.4684 72.6041 18.4991L69.3747 22.8703C69.3539 22.8985 69.3413 22.932 69.3383 22.9669C69.3354 23.0019 69.3422 23.037 69.358 23.0683C69.3738 23.0996 69.398 23.1259 69.4279 23.1443C69.4578 23.1626 69.4922 23.1723 69.5272 23.1723H69.5278ZM73.0344 22.2894L69.9492 22.7308L72.629 19.1043L73.0344 22.2894Z" fill="#292A2E"/>
<path d="M73.0297 44.6403L91.4244 37.7731L82.4745 13.7998L67.5984 19.3534L65.4537 24.3472L73.0297 44.6403Z" fill="#367CFF"/>
<g opacity="0.43">
<path d="M73.0339 44.6403L91.4286 37.7731L82.4787 13.7998L67.6025 19.3534L65.4578 24.3472L73.0339 44.6403Z" fill="white"/>
</g>
<path d="M73.0309 44.8298C73.0536 44.8298 73.076 44.8258 73.0972 44.8179L91.4921 37.9507C91.5392 37.9331 91.5773 37.8976 91.5982 37.8519C91.619 37.8062 91.6209 37.7541 91.6034 37.707L82.6535 13.7336C82.6448 13.7103 82.6315 13.6889 82.6146 13.6707C82.5976 13.6525 82.5772 13.6378 82.5546 13.6274C82.5319 13.6171 82.5075 13.6113 82.4826 13.6105C82.4577 13.6096 82.4329 13.6136 82.4096 13.6223L67.5334 19.1761C67.5094 19.185 67.4875 19.1987 67.4689 19.2164C67.4504 19.234 67.4356 19.2553 67.4254 19.2788L65.281 24.2724C65.2617 24.3172 65.2605 24.3677 65.2775 24.4134L72.8536 44.7063C72.867 44.7425 72.8912 44.7737 72.9229 44.7958C72.9546 44.8179 72.9923 44.8298 73.0309 44.8298ZM91.1827 37.6619L73.1427 44.3967L65.6597 24.3522L67.7422 19.5026L82.3653 14.0436L91.1827 37.6619Z" fill="#292A2E"/>
<path d="M67.6001 19.3533L68.9535 22.9789L65.4554 24.3471L67.6001 19.3533Z" fill="white"/>
<path d="M65.4542 24.5366C65.4778 24.5366 65.5012 24.5321 65.5231 24.5235L69.0212 23.1555C69.0676 23.1374 69.1049 23.1017 69.1252 23.0563C69.1455 23.0108 69.1471 22.9592 69.1296 22.9126L67.7762 19.2872C67.763 19.2517 67.7395 19.221 67.7087 19.199C67.6779 19.177 67.6412 19.1648 67.6034 19.1638H67.5987C67.5616 19.1638 67.5253 19.1747 67.4944 19.1951C67.4634 19.2155 67.4391 19.2446 67.4245 19.2786L65.28 24.2723C65.2674 24.3012 65.2622 24.3327 65.2649 24.3641C65.2676 24.3955 65.278 24.4257 65.2953 24.4521C65.3126 24.4784 65.3362 24.5 65.3639 24.5149C65.3916 24.5299 65.4227 24.5376 65.4542 24.5376V24.5366ZM68.7096 22.8705L65.807 24.0057L67.5863 19.8622L68.7096 22.8705Z" fill="#292A2E"/>
<path d="M68.9635 26.442C68.986 26.4421 69.0085 26.438 69.0296 26.4301L82.6427 21.344C82.6887 21.3257 82.7257 21.29 82.7458 21.2447C82.7659 21.1994 82.7674 21.1481 82.75 21.1017C82.7327 21.0553 82.6979 21.0175 82.653 20.9964C82.6082 20.9754 82.5568 20.9728 82.5101 20.9891L68.897 26.0752C68.8555 26.0908 68.8207 26.1205 68.7989 26.1591C68.777 26.1976 68.7693 26.2426 68.7772 26.2863C68.7851 26.3299 68.808 26.3694 68.842 26.3979C68.876 26.4263 68.9191 26.442 68.9635 26.442Z" fill="#292A2E"/>
<path d="M69.9734 28.9515C69.996 28.9514 70.0184 28.9473 70.0395 28.9394L83.6527 23.8533C83.6987 23.8349 83.7357 23.7993 83.7557 23.754C83.7758 23.7087 83.7773 23.6573 83.76 23.6109C83.7426 23.5645 83.7078 23.5268 83.663 23.5057C83.6181 23.4847 83.5668 23.4821 83.52 23.4984L69.9069 28.5845C69.8653 28.6 69.8304 28.6297 69.8084 28.6683C69.7865 28.7069 69.7787 28.752 69.7866 28.7957C69.7945 28.8395 69.8176 28.879 69.8517 28.9075C69.8858 28.936 69.9288 28.9515 69.9732 28.9515H69.9734Z" fill="#292A2E"/>
<path d="M70.9173 31.4715C70.9399 31.4715 70.9624 31.4675 70.9836 31.4596L84.5965 26.3735C84.6203 26.3652 84.6422 26.3522 84.661 26.3353C84.6797 26.3184 84.6949 26.2979 84.7056 26.2751C84.7163 26.2522 84.7223 26.2275 84.7234 26.2023C84.7244 26.1771 84.7204 26.1519 84.7115 26.1283C84.7027 26.1046 84.6892 26.083 84.6719 26.0647C84.6546 26.0463 84.6338 26.0316 84.6108 26.0214C84.5877 26.0111 84.5628 26.0056 84.5376 26.0052C84.5124 26.0047 84.4873 26.0093 84.4639 26.0186L70.8508 31.1047C70.8093 31.1203 70.7746 31.15 70.7527 31.1885C70.7308 31.2271 70.7231 31.2721 70.731 31.3158C70.7389 31.3594 70.7618 31.3989 70.7958 31.4273C70.8298 31.4558 70.8727 31.4714 70.9171 31.4715H70.9173Z" fill="#292A2E"/>
<path d="M76.7782 26.6157L76.9867 27.8075C77.0319 28.0666 77.1782 28.2972 77.3934 28.4484C77.6086 28.5996 77.875 28.6592 78.1341 28.614L90.0204 26.5399C90.1487 26.5176 90.2801 26.5207 90.4072 26.5491C90.5343 26.5775 90.6546 26.6307 90.7612 26.7056C90.8677 26.7805 90.9585 26.8756 91.0283 26.9856C91.098 27.0956 91.1455 27.2182 91.1678 27.3465L93.9438 43.2597C93.9891 43.5188 93.9295 43.7853 93.7783 44.0004C93.6271 44.2156 93.3965 44.3619 93.1374 44.4072L70.0522 48.4339C69.7931 48.4791 69.5267 48.4195 69.3115 48.2682C69.0963 48.117 68.95 47.8864 68.9048 47.6273L68.2137 43.6661L65.959 30.7372L65.58 28.5685C65.5576 28.4402 65.5607 28.3087 65.5891 28.1816C65.6176 28.0545 65.6707 27.9342 65.7456 27.8277C65.8205 27.7211 65.9157 27.6304 66.0257 27.5606C66.1357 27.4908 66.2583 27.4434 66.3866 27.421L75.6312 25.8084C75.7595 25.7861 75.891 25.7892 76.0181 25.8177C76.1452 25.8462 76.2654 25.8995 76.372 25.9744C76.4785 26.0494 76.5692 26.1446 76.6389 26.2547C76.7086 26.3647 76.756 26.4874 76.7782 26.6157Z" fill="white"/>
<path d="M69.8808 48.6382C69.949 48.6382 70.017 48.6323 70.0841 48.6206L93.169 44.5933C93.4774 44.539 93.7517 44.3647 93.9317 44.1085C94.1118 43.8523 94.1829 43.5351 94.1294 43.2266L91.3534 27.3134C91.2995 27.0048 91.1253 26.7302 90.869 26.5501C90.6127 26.3699 90.2953 26.299 89.9867 26.3528L78.1001 28.4264C77.9963 28.4446 77.8899 28.4421 77.7871 28.4192C77.6842 28.3963 77.5869 28.3533 77.5007 28.2927C77.4145 28.2321 77.341 28.1551 77.2846 28.0661C77.2281 27.9771 77.1898 27.8779 77.1717 27.774L76.9633 26.5824C76.9367 26.4296 76.8802 26.2835 76.7971 26.1525C76.714 26.0215 76.606 25.9081 76.4791 25.8189C76.3522 25.7297 76.2089 25.6663 76.0575 25.6325C75.9062 25.5986 75.7496 25.5949 75.5968 25.6216L66.3522 27.2344C66.0436 27.2883 65.769 27.4625 65.5889 27.7188C65.4088 27.9751 65.3378 28.2925 65.3916 28.6011L68.7175 47.6599C68.7656 47.9336 68.9086 48.1817 69.1213 48.3605C69.334 48.5394 69.6029 48.6377 69.8808 48.6382ZM90.1927 26.7139C90.3813 26.7144 90.5637 26.7812 90.7078 26.9028C90.852 27.0243 90.9488 27.1928 90.9811 27.3786L93.7564 43.2918C93.7928 43.5013 93.7446 43.7168 93.6223 43.8909C93.5 44.0649 93.3137 44.1834 93.1042 44.2202L70.0188 48.2473C69.8092 48.2838 69.5936 48.2356 69.4196 48.1133C69.2455 47.9909 69.1271 47.8045 69.0903 47.5949L65.7656 28.5361C65.7291 28.3265 65.7773 28.111 65.8996 27.9369C66.0219 27.7629 66.2082 27.6444 66.4178 27.6077L75.6623 25.9948C75.7661 25.9767 75.8725 25.9791 75.9753 26.0021C76.0782 26.0251 76.1755 26.0681 76.2617 26.1286C76.3479 26.1892 76.4214 26.2662 76.4778 26.3552C76.5343 26.4442 76.5727 26.5434 76.5908 26.6472L76.7992 27.8388C76.8258 27.9917 76.8823 28.1378 76.9654 28.2688C77.0485 28.3998 77.1566 28.5131 77.2835 28.6023C77.4104 28.6916 77.5537 28.7549 77.7051 28.7888C77.8565 28.8226 78.013 28.8263 78.1659 28.7997L90.0527 26.7258C90.0987 26.7179 90.1454 26.7139 90.1921 26.7139H90.1927Z" fill="#292A2E"/>
<path d="M68.1395 36.3526C68.1108 36.2507 68.0495 36.1611 67.9651 36.0973C67.8807 36.0334 67.7777 35.9989 67.6719 35.999C67.6732 35.9905 67.6825 35.971 67.6677 35.9695L68.0321 35.7925C68.1406 35.7428 68.2274 35.6554 68.2765 35.5466C68.3256 35.4378 68.3336 35.3149 68.2991 35.2006C68.2613 35.0889 68.1834 34.9952 68.0805 34.9376C67.9776 34.8801 67.857 34.8628 67.742 34.8891C67.7435 34.8845 67.742 34.8796 67.742 34.8749L67.8917 34.8021C67.9937 34.7548 68.0762 34.6736 68.1253 34.5724C68.1743 34.4712 68.1869 34.3562 68.1609 34.2468C68.1432 34.1785 68.1106 34.115 68.0654 34.0609C68.0201 34.0067 67.9634 33.9633 67.8994 33.9337C67.8354 33.9042 67.7655 33.8892 67.695 33.8899C67.6245 33.8906 67.555 33.9069 67.4915 33.9377L67.1459 34.1054C67.1459 34.1035 67.1459 34.1014 67.1459 34.0995C67.1459 34.0976 67.1417 34.0965 67.1402 34.0942C67.2246 34.0269 67.2835 33.9329 67.3073 33.8277C67.3311 33.7225 67.3184 33.6123 67.2713 33.5152C67.1662 33.2566 66.8227 33.2469 66.5993 33.3553L65.9221 33.7517C65.8176 33.8129 65.7298 33.899 65.6667 34.0023C65.6035 34.1057 65.5668 34.223 65.56 34.344C65.4996 35.3901 65.4071 38.1265 66.1203 37.7801L67.8758 36.9275C67.9773 36.8745 68.0584 36.7893 68.1061 36.6852C68.1539 36.5811 68.1656 36.4641 68.1395 36.3526Z" fill="#E98862"/>
<path d="M87.7612 40.7886C87.7687 40.6722 87.8121 40.561 87.8855 40.4703C87.9589 40.3797 88.0586 40.314 88.1709 40.2824C88.1659 40.2734 88.1639 40.263 88.1652 40.2528C88.1674 40.2443 88.1718 40.2366 88.1779 40.2303C88.1841 40.2241 88.1918 40.2195 88.2002 40.2172L87.7313 40.1132C87.5925 40.0855 87.4684 40.0085 87.382 39.8965C87.2955 39.7844 87.2525 39.6449 87.261 39.5036C87.2741 39.3645 87.3383 39.2352 87.4412 39.1407C87.5441 39.0462 87.6784 38.9932 87.8181 38.992C87.815 38.9873 87.8164 38.981 87.8148 38.9755L87.6221 38.9327C87.4914 38.9062 87.3739 38.8352 87.2895 38.7319C87.2051 38.6287 87.1591 38.4994 87.1591 38.366C87.1608 38.2824 87.181 38.2002 87.2184 38.1253C87.2557 38.0505 87.3092 37.9849 87.3749 37.9332C87.4407 37.8815 87.5171 37.845 87.5986 37.8264C87.6802 37.8078 87.7648 37.8075 87.8465 37.8256L88.2912 37.9243C88.2912 37.9219 88.2893 37.92 88.2899 37.9175C88.2904 37.915 88.2936 37.9128 88.2948 37.9099C88.1791 37.8553 88.0853 37.7631 88.0289 37.6482C87.9726 37.5334 87.9569 37.4028 87.9844 37.2778C88.0348 36.9506 88.4284 36.8451 88.7158 36.9089L91.3107 37.4376L90.6951 36.9876C90.5733 36.9024 90.4885 36.7741 90.4577 36.6287C90.427 36.4833 90.4526 36.3317 90.5295 36.2045C90.5713 36.1402 90.6259 36.0851 90.6897 36.0426C90.7536 36.0001 90.8255 35.971 90.9009 35.9572C90.9764 35.9434 91.0539 35.9451 91.1287 35.9623C91.2034 35.9794 91.2739 36.0116 91.3359 36.0569L94.6972 38.5144C95.0917 38.8025 95.3582 39.2332 95.44 39.7148C95.5219 40.1965 95.4126 40.691 95.1354 41.0933C94.8142 41.56 94.361 41.9201 93.8338 42.1275C93.3066 42.3349 92.7295 42.3802 92.1764 42.2575L88.2243 41.3802C88.0917 41.3483 87.9738 41.2725 87.8897 41.1651C87.8056 41.0577 87.7603 40.925 87.7612 40.7886Z" fill="#E98862"/>
<g opacity="0.25">
<path d="M90.8591 38.4442C90.856 38.4574 90.8479 38.469 90.8365 38.4763C90.825 38.4837 90.8112 38.4863 90.7979 38.4836L88.3309 37.9775C88.318 37.9741 88.3069 37.9659 88.2999 37.9546C88.2929 37.9433 88.2904 37.9297 88.2931 37.9167C88.2958 37.9036 88.3033 37.8921 88.3142 37.8845C88.3251 37.8768 88.3385 37.8736 88.3517 37.8756L90.8187 38.3815C90.8254 38.3828 90.8318 38.3854 90.8375 38.3893C90.8431 38.3931 90.848 38.398 90.8518 38.4037C90.8556 38.4094 90.8582 38.4158 90.8594 38.4225C90.8607 38.4292 90.8607 38.4361 90.8592 38.4428L90.8591 38.4442Z" fill="#0C0C0C"/>
</g>
<g opacity="0.25">
<path d="M90.6635 39.5381C90.6605 39.5514 90.6524 39.563 90.6409 39.5704C90.6294 39.5777 90.6155 39.5803 90.6021 39.5775L87.849 39.0129C87.8423 39.0115 87.836 39.0089 87.8303 39.0051C87.8246 39.0012 87.8198 38.9963 87.816 38.9906C87.8123 38.9849 87.8097 38.9785 87.8084 38.9718C87.8071 38.9651 87.8071 38.9582 87.8085 38.9515C87.8117 38.9382 87.8198 38.9266 87.8313 38.919C87.8427 38.9115 87.8566 38.9086 87.8701 38.911L90.6232 39.4754C90.6299 39.4768 90.6362 39.4795 90.6419 39.4833C90.6476 39.4872 90.6524 39.4921 90.6562 39.4978C90.66 39.5035 90.6626 39.5099 90.6639 39.5166C90.6652 39.5234 90.6651 39.5303 90.6637 39.537L90.6635 39.5381Z" fill="#0C0C0C"/>
</g>
<g opacity="0.25">
<path d="M90.4637 40.7246C90.4607 40.7378 90.4526 40.7494 90.4412 40.7568C90.4297 40.7642 90.4158 40.7667 90.4025 40.764L88.2063 40.3136C88.1996 40.3122 88.1932 40.3096 88.1875 40.3057C88.1819 40.3019 88.177 40.297 88.1733 40.2913C88.1695 40.2856 88.1669 40.2792 88.1656 40.2725C88.1643 40.2658 88.1644 40.2589 88.1657 40.2522C88.1686 40.2387 88.1766 40.2268 88.1881 40.2192C88.1997 40.2115 88.2138 40.2088 88.2273 40.2115L90.4233 40.6618C90.43 40.6632 90.4364 40.6659 90.4421 40.6697C90.4478 40.6736 90.4526 40.6785 90.4564 40.6842C90.4601 40.6899 90.4627 40.6963 90.464 40.7031C90.4653 40.7098 90.4653 40.7167 90.4639 40.7234L90.4637 40.7246Z" fill="#0C0C0C"/>
</g>
<path d="M92.4236 43.8203L113.866 47.6955C114.535 47.7683 115.212 47.685 115.844 47.4523C116.475 47.2196 117.044 46.8436 117.506 46.354C117.968 45.8645 118.31 45.2745 118.506 44.6305C118.701 43.9865 118.745 43.3059 118.633 42.6422L115.631 24.7992C115.536 24.2351 115.331 23.6952 115.028 23.2103C114.724 22.7254 114.328 22.3051 113.862 21.9733C113.396 21.6415 112.869 21.4048 112.312 21.2766C111.754 21.1484 111.177 21.1312 110.613 21.2261C110.049 21.321 109.509 21.5261 109.024 21.8297C108.539 22.1332 108.119 22.5293 107.787 22.9953C107.455 23.4613 107.219 23.9881 107.09 24.5456C106.962 25.1031 106.945 25.6804 107.04 26.2445L109.086 38.5275L93.3657 36.5533L92.4236 43.8203Z" fill="#367CFF"/>
<path d="M113.867 47.7748C113.887 47.7746 113.906 47.7671 113.92 47.7537C113.935 47.7403 113.944 47.722 113.945 47.7023C113.947 47.6826 113.941 47.663 113.93 47.6473C113.918 47.6316 113.9 47.6209 113.881 47.6173L92.5124 43.7558L93.4352 36.6419L109.078 38.6064C109.09 38.608 109.102 38.6066 109.114 38.6025C109.126 38.5984 109.136 38.5916 109.145 38.5827C109.153 38.5738 109.16 38.563 109.163 38.5512C109.167 38.5394 109.168 38.5269 109.166 38.5147L107.864 30.6643C107.863 30.654 107.859 30.6441 107.854 30.6352C107.848 30.6263 107.841 30.6186 107.833 30.6125C107.824 30.6064 107.814 30.6021 107.804 30.5998C107.794 30.5975 107.783 30.5973 107.773 30.5991C107.752 30.6026 107.734 30.6141 107.722 30.6312C107.709 30.6483 107.704 30.6695 107.708 30.6903L108.991 38.4357L93.3759 36.4746C93.3551 36.4722 93.3342 36.478 93.3176 36.4908C93.3011 36.5036 93.2902 36.5224 93.2874 36.5432L92.3445 43.8102C92.3419 43.8304 92.3472 43.8508 92.3592 43.8672C92.3712 43.8836 92.3891 43.8948 92.4092 43.8985L113.853 47.7736C113.857 47.7744 113.862 47.7748 113.867 47.7748Z" fill="#0C0C0C"/>
<path d="M109.1 38.4491L110.479 38.6699L110.454 38.8267L109.075 38.6059L109.1 38.4491Z" fill="#0C0C0C"/>
</svg>
