<svg width="168" height="113" viewBox="0 0 168 113" fill="none" xmlns="http://www.w3.org/2000/svg">
<g clip-path="url(#clip0_214_310)">
<path d="M35.3617 43.6924H34.2762L34.2762 0.00012207H35.3617L35.3617 43.6924Z" fill="#F4F4F4"/>
<path opacity="0.05" d="M35.3617 43.6924H34.2762L34.2762 0.00012207H35.3617L35.3617 43.6924Z" fill="#292A2E"/>
<path opacity="0.03" d="M41.4582 7.95923H42.5668V35.7334H41.4582V7.95923Z" fill="#292A2E"/>
<path d="M7.99237 54.437H35.3619V82.1419H7.99237V54.437Z" fill="#F4F4F4"/>
<path opacity="0.05" d="M12.978 59.4839H30.3761V77.0952H12.978V59.4839Z" fill="#292A2E"/>
<path d="M7.99216 82.1418H6.90662L6.90662 54.4369H7.99216L7.99216 82.1418Z" fill="#F4F4F4"/>
<path opacity="0.05" d="M7.99216 82.1418H6.90662L6.90662 54.4369H7.99216L7.99216 82.1418Z" fill="#292A2E"/>
<path opacity="0.03" d="M12.9782 59.4839H14.0869V77.0952H12.9782V59.4839Z" fill="#292A2E"/>
<path d="M116.819 38.8442C116.819 38.8442 113.781 36.2054 113.36 30.5762C113.035 26.2169 116.819 29.2812 116.819 29.2812C116.819 29.2812 116.615 26.1401 118.855 26.6008C121.095 27.0615 122.144 30.4176 122.144 30.4176" fill="#0C0C0C"/>
<path d="M130.52 27.7512C130.52 27.7512 141.661 29.712 136.586 44.6911H133.564" fill="#0C0C0C"/>
<path d="M117.973 60.2638C118.023 60.2573 118.571 69.3895 129.148 68.5933C136.47 68.043 139.081 60.2508 139.249 60.2508C138.46 60.0825 137.13 59.8379 136.779 59.6501C135.627 59.0287 134.2 58.382 133.828 56.1361C133.614 54.8418 133.977 48.2196 133.866 46.9097L122.626 49.4261C122.783 52.1921 123.882 58.6045 120.03 59.7395C119.389 59.9272 118.698 60.0998 117.973 60.2638Z" fill="#E98862"/>
<path opacity="0.52" d="M122.469 57.1188C122.645 56.5497 122.758 55.963 122.807 55.3692C122.93 54.014 122.906 52.6493 122.733 51.2995C125.018 50.9901 127.17 50.0443 128.945 48.5696C129.154 49.3426 130.302 52.7208 129.984 53.4556C129.383 54.8444 126.56 57.1188 122.469 57.1188Z" fill="#0C0C0C"/>
<path d="M124.464 54.9124C128.914 54.8118 134.397 52.364 134.876 46.3452L135.307 40.9144C135.786 34.8959 133.021 29.7644 127.373 29.3123C121.723 28.86 117.112 33.4004 116.634 39.4198L116.442 41.8242C116.391 42.6508 116.396 43.48 116.457 44.306C116.602 46.4906 116.832 49.8117 118.148 52.136C119.391 54.3314 121.62 54.9769 124.464 54.9124Z" fill="#E98862"/>
<path d="M118.31 43.1115C117.924 43.1115 117.612 42.798 117.612 42.4113C117.612 42.0247 117.924 41.7112 118.31 41.7112C118.695 41.7112 119.008 42.0247 119.008 42.4113C119.008 42.798 118.695 43.1115 118.31 43.1115Z" fill="#0C0C0C"/>
<path d="M124.719 43.1554C124.334 43.1554 124.021 42.842 124.021 42.4553C124.021 42.0686 124.334 41.7551 124.719 41.7551C125.105 41.7551 125.417 42.0686 125.417 42.4553C125.417 42.842 125.105 43.1554 124.719 43.1554Z" fill="#0C0C0C"/>
<path d="M134.379 48.1507C136.096 48.2883 137.635 46.5573 137.771 44.8351C137.907 43.1129 136.592 42.0517 134.875 41.915L133.899 42.9981L132.903 48.0333L134.379 48.1507Z" fill="#E98862"/>
<path d="M132.854 45.2662C132.854 45.2662 132.844 36.7036 130.302 36.0041C128.609 35.5382 124.284 37.7001 120.479 36.7036C118.814 36.2675 117.185 36.5786 116.969 37.3668C116.882 37.6789 116.136 33.0624 119.008 29.7889C121.294 27.1829 128.227 26.8689 131.297 27.9811C139.798 31.0579 135.204 42.3137 135.204 42.3137L134.622 45.2264L132.854 45.2662Z" fill="#0C0C0C"/>
<g opacity="0.52">
<path d="M121.762 47.3318H121.751C121.198 47.2886 120.274 47.1553 120.306 46.7401C120.333 46.3959 121.557 42.7547 121.697 42.3407C121.71 42.3064 121.736 42.2785 121.769 42.2628C121.802 42.2472 121.84 42.245 121.875 42.2567C121.909 42.2685 121.938 42.2933 121.955 42.3259C121.972 42.3585 121.975 42.3964 121.965 42.4316C121.421 44.0441 120.607 46.5281 120.588 46.7619C120.635 46.8642 121.2 47.0046 121.774 47.0491C121.811 47.051 121.846 47.0674 121.871 47.0949C121.897 47.1224 121.91 47.1587 121.908 47.196C121.907 47.2332 121.891 47.2684 121.864 47.294C121.837 47.3195 121.801 47.3333 121.764 47.3323L121.762 47.3318Z" fill="#0C0C0C"/>
</g>
<path d="M120.524 38.7925C119.96 38.5941 119.353 38.5518 118.767 38.6701C118.479 38.7264 118.2 38.8259 117.942 38.9651C117.685 39.1016 117.447 39.2699 117.233 39.466C117.198 39.4967 117.176 39.5398 117.172 39.5864C117.168 39.6329 117.182 39.6792 117.212 39.7155C117.241 39.7517 117.283 39.7752 117.329 39.7808C117.376 39.7865 117.422 39.7739 117.459 39.7457L117.471 39.7371C117.669 39.5743 117.888 39.4372 118.12 39.3289C118.35 39.221 118.594 39.1485 118.844 39.1139C119.34 39.0416 119.846 39.102 120.311 39.2889L120.329 39.2962C120.361 39.3117 120.397 39.3204 120.433 39.3218C120.469 39.3231 120.506 39.3171 120.54 39.3041C120.573 39.2911 120.604 39.2714 120.63 39.2462C120.657 39.2209 120.677 39.1906 120.691 39.1571C120.706 39.1236 120.713 39.0876 120.713 39.0512C120.713 39.0148 120.705 38.9788 120.691 38.9453C120.677 38.9119 120.656 38.8816 120.63 38.8565C120.604 38.8313 120.573 38.8116 120.539 38.7987L120.524 38.7925Z" fill="#0C0C0C"/>
<path d="M124.622 39.3473C125.086 39.1605 125.592 39.1003 126.088 39.1727C126.339 39.2073 126.583 39.2798 126.812 39.3877C127.045 39.4959 127.263 39.633 127.462 39.7959L127.473 39.8043C127.51 39.8323 127.556 39.8447 127.602 39.8391C127.648 39.8334 127.69 39.8101 127.72 39.774C127.749 39.7379 127.763 39.6918 127.759 39.6454C127.756 39.599 127.734 39.5558 127.699 39.5251C127.485 39.3288 127.247 39.1604 126.991 39.0239C126.732 38.8846 126.454 38.785 126.165 38.7286C125.579 38.6104 124.972 38.6527 124.408 38.8511C124.342 38.8764 124.289 38.9267 124.26 38.991C124.23 39.0553 124.227 39.1286 124.251 39.1952C124.275 39.2617 124.324 39.3163 124.387 39.3472C124.451 39.378 124.524 39.3827 124.591 39.3602L124.604 39.3553L124.622 39.3473Z" fill="#0C0C0C"/>
<path d="M121.084 48.742C122.694 48.9284 124.32 48.5715 125.705 47.7276C125.753 47.6985 125.808 47.6838 125.864 47.6851C125.92 47.6865 125.975 47.7038 126.022 47.7351C126.068 47.7664 126.105 47.8104 126.127 47.8619C126.15 47.9133 126.158 47.9702 126.149 48.0258C125.995 48.9776 125.438 50.7142 123.426 50.8405C122.126 50.9221 121.238 49.8808 120.798 49.1967C120.768 49.1492 120.751 49.094 120.751 49.0374C120.75 48.9809 120.766 48.9255 120.796 48.8776C120.826 48.8298 120.869 48.7916 120.92 48.7676C120.971 48.7436 121.028 48.7347 121.084 48.742Z" fill="white"/>
<path d="M121.76 32.9436C120.506 32.5915 119.908 30.8051 120.424 28.9536C120.941 27.1021 122.376 25.8865 123.631 26.2385C124.885 26.5906 125.483 28.377 124.966 30.2285C124.449 32.08 123.014 33.2956 121.76 32.9436Z" fill="#0C0C0C"/>
<path d="M129.358 66.3161C136.71 65.9685 137.019 59.7095 137.019 59.7095C137.019 59.7095 140.662 59.9457 143.084 60.2742C147.048 60.8122 149.663 62.1606 151.744 64.2483C153.681 66.1902 154.859 68.2914 153.612 81.7058C152.709 91.419 153.344 112.784 153.344 112.784H108.976C108.976 112.784 106.315 84.7805 105.945 80.408C105.237 72.0612 104.662 64.7899 106.39 63.0569C109.941 59.4943 116.913 59.7095 119.966 59.7099C120.016 59.7099 119.347 66.7894 129.358 66.3161Z" fill="#367CFF"/>
<path d="M64.6056 112.496L96.6501 112.655C98.1875 112.543 99.6611 111.993 100.897 111.07C102.134 110.146 103.081 108.887 103.628 107.442L119.433 72.2715C120.193 70.2602 120.127 68.0281 119.247 66.0663C118.367 64.1044 116.746 62.5734 114.741 61.8102C110.565 60.2206 106.442 61.2893 104.858 65.4773L90.3376 96.8474L63.9568 97.2768C63.9568 97.2768 64.4072 112.51 64.6056 112.496Z" fill="#367CFF"/>
<path d="M106.572 82.3596C106.57 82.3309 106.557 82.3041 106.535 82.2851C106.514 82.2661 106.486 82.2565 106.457 82.2583C106.429 82.2601 106.402 82.2732 106.383 82.2948C106.364 82.3163 106.354 82.3446 106.356 82.3732L107.258 96.8281C107.26 96.8541 107.271 96.8786 107.289 96.8972C107.307 96.9157 107.332 96.9271 107.357 96.9291C107.363 96.9294 107.368 96.9294 107.373 96.9291C107.387 96.9282 107.401 96.9246 107.413 96.9183C107.426 96.912 107.438 96.9033 107.447 96.8927C107.456 96.882 107.463 96.8696 107.468 96.8561C107.473 96.8427 107.475 96.8284 107.474 96.8142" fill="#0C0C0C"/>
<path d="M101.108 97.861L107.606 95.5762L106.673 95.5113C106.372 95.4844 106.093 95.3441 105.892 95.1185C105.69 94.893 105.581 94.5991 105.588 94.2963C105.596 94.1401 105.636 93.9873 105.706 93.8472C105.775 93.7071 105.872 93.5826 105.991 93.4814C106.11 93.3802 106.248 93.3043 106.398 93.2585C106.547 93.2127 106.704 93.1978 106.859 93.2148L118.355 94.4404L118.057 98.1463C117.964 99.2973 117.531 100.394 116.812 101.297C116.094 102.199 115.123 102.865 114.024 103.211L109.045 104.766C108.788 104.852 108.51 104.846 108.256 104.75C108.003 104.653 107.791 104.472 107.655 104.236C107.538 104.021 107.492 103.773 107.524 103.53C107.557 103.287 107.666 103.06 107.836 102.884C107.821 102.873 107.809 102.858 107.801 102.84C107.796 102.824 107.794 102.807 107.796 102.79C107.798 102.773 107.804 102.756 107.814 102.742L106.896 103.031C106.61 103.127 106.298 103.111 106.023 102.986C105.749 102.86 105.532 102.635 105.416 102.355C105.322 102.101 105.32 101.822 105.41 101.567C105.5 101.312 105.678 101.097 105.91 100.96C105.9 100.954 105.89 100.946 105.882 100.937L105.505 101.056C105.248 101.142 104.969 101.136 104.716 101.039C104.462 100.942 104.25 100.761 104.115 100.525C103.972 100.264 103.936 99.9576 104.014 99.67C104.091 99.3825 104.277 99.1363 104.532 98.9831C104.53 98.9755 104.528 98.9676 104.528 98.9598L101.822 99.9115C101.687 99.9607 101.544 99.9827 101.401 99.976C101.258 99.9694 101.117 99.9343 100.988 99.8729C100.858 99.8114 100.742 99.7247 100.646 99.6179C100.551 99.5111 100.477 99.3862 100.429 99.2506C100.382 99.1149 100.362 98.9712 100.37 98.8277C100.379 98.6842 100.415 98.5438 100.478 98.4147C100.541 98.2855 100.629 98.1702 100.737 98.0754C100.845 97.9805 100.97 97.9081 101.106 97.8622L101.108 97.861Z" fill="#E98862"/>
<path opacity="0.2" d="M104.636 99.0654C104.648 99.0655 104.661 99.0633 104.672 99.0589L107.29 98.1042C107.304 98.0998 107.317 98.0927 107.328 98.0832C107.339 98.0737 107.348 98.062 107.355 98.0489C107.361 98.0358 107.365 98.0216 107.366 98.007C107.366 97.9924 107.364 97.9778 107.359 97.9641C107.354 97.9503 107.347 97.9377 107.337 97.9271C107.327 97.9164 107.315 97.9079 107.301 97.902C107.288 97.8961 107.274 97.893 107.259 97.8928C107.245 97.8927 107.23 97.8955 107.217 97.9011L104.599 98.8558C104.575 98.8646 104.555 98.8814 104.543 98.9034C104.53 98.9254 104.526 98.9511 104.53 98.9761C104.534 99.001 104.547 99.0236 104.567 99.04C104.586 99.0563 104.61 99.0653 104.636 99.0654Z" fill="#0A0A0A"/>
<path opacity="0.2" d="M105.96 100.974C105.972 100.974 105.984 100.972 105.996 100.968L108.059 100.232C108.085 100.222 108.106 100.202 108.118 100.176C108.129 100.151 108.131 100.122 108.121 100.095C108.112 100.069 108.093 100.047 108.068 100.035C108.042 100.022 108.014 100.02 107.987 100.029L105.924 100.763C105.9 100.771 105.88 100.788 105.867 100.81C105.854 100.832 105.849 100.858 105.854 100.883C105.858 100.908 105.871 100.931 105.89 100.947C105.91 100.964 105.934 100.973 105.96 100.973V100.974Z" fill="#0A0A0A"/>
<path opacity="0.2" d="M107.902 102.911C107.915 102.911 107.928 102.908 107.94 102.904L108.907 102.534C108.932 102.523 108.953 102.503 108.964 102.477C108.975 102.451 108.976 102.422 108.966 102.396C108.956 102.37 108.936 102.348 108.911 102.336C108.885 102.324 108.856 102.323 108.83 102.332L107.863 102.702C107.84 102.711 107.82 102.728 107.808 102.75C107.795 102.772 107.791 102.798 107.796 102.822C107.8 102.847 107.813 102.87 107.833 102.886C107.852 102.902 107.877 102.911 107.902 102.911Z" fill="#0A0A0A"/>
<path d="M113.538 105.928L153.828 112.627C155.07 112.763 156.327 112.608 157.499 112.174C158.672 111.741 159.728 111.041 160.585 110.13C161.443 109.218 162.078 108.12 162.441 106.92C162.804 105.721 162.885 104.454 162.678 103.218L154.086 68.6967C153.73 66.5753 152.549 64.6826 150.802 63.4348C149.055 62.1871 146.885 61.6867 144.77 62.0436C142.655 62.4005 140.768 63.5855 139.524 65.338C138.28 67.0904 137.781 69.2667 138.137 71.3882L144.726 95.4482L115.45 91.4367L113.538 105.928Z" fill="#367CFF"/>
<path d="M149.978 96.2033C150.005 96.2031 150.031 96.1926 150.051 96.1741C150.071 96.1555 150.083 96.1302 150.085 96.1031C150.087 96.076 150.078 96.0491 150.062 96.0279C150.045 96.0066 150.021 95.9925 149.994 95.9883L144.972 95.2341C144.958 95.2318 144.944 95.2323 144.93 95.2357C144.916 95.239 144.903 95.2451 144.892 95.2535C144.88 95.262 144.87 95.2727 144.863 95.2849C144.856 95.2972 144.851 95.3108 144.849 95.3249C144.845 95.3533 144.852 95.3822 144.869 95.4052C144.886 95.4282 144.912 95.4435 144.94 95.4478L149.962 96.202C149.967 96.2029 149.973 96.2033 149.978 96.2033Z" fill="#0C0C0C"/>
<path d="M152.707 112.784C152.735 112.786 152.763 112.776 152.785 112.757C152.806 112.738 152.82 112.711 152.821 112.683C152.823 112.654 152.814 112.626 152.795 112.604C152.776 112.583 152.749 112.569 152.72 112.568L113.764 105.846L115.652 91.5705L144.726 95.4484C144.743 95.4505 144.76 95.4487 144.776 95.4431C144.792 95.4376 144.806 95.4284 144.818 95.4163C144.83 95.4042 144.838 95.3894 144.843 95.3732C144.848 95.357 144.849 95.3398 144.847 95.3231L141.701 81.709C141.698 81.6949 141.694 81.6814 141.686 81.6692C141.679 81.6571 141.669 81.6466 141.657 81.6383C141.646 81.63 141.633 81.6241 141.619 81.621C141.605 81.6179 141.59 81.6176 141.576 81.6201C141.562 81.6225 141.549 81.6276 141.537 81.6351C141.525 81.6427 141.515 81.6525 141.506 81.6641C141.498 81.6757 141.492 81.6888 141.489 81.7027C141.486 81.7165 141.486 81.7309 141.488 81.7449L144.61 95.2152L115.571 91.3413C115.557 91.3394 115.542 91.3403 115.529 91.3441C115.515 91.3479 115.502 91.3545 115.49 91.3634C115.479 91.3723 115.47 91.3834 115.463 91.396C115.456 91.4086 115.451 91.4225 115.45 91.4369L113.538 105.929C113.535 105.957 113.543 105.985 113.56 106.007C113.578 106.03 113.603 106.044 113.631 106.048L152.693 112.783C152.697 112.784 152.702 112.784 152.707 112.784Z" fill="#0C0C0C"/>
<path d="M82.5708 108.83L72.0207 76.3008C71.8353 75.7292 71.4743 75.231 70.9894 74.8778C70.5045 74.5245 69.9206 74.3342 69.3213 74.3342H26.3399C25.8918 74.3342 25.4501 74.4406 25.0509 74.6447C24.6518 74.8488 24.3064 75.1447 24.0431 75.5084C23.7798 75.872 23.6061 76.293 23.5362 76.7369C23.4662 77.1808 23.502 77.635 23.6407 78.0624L34.1905 110.591C34.3759 111.163 34.7368 111.661 35.2216 112.014C35.7064 112.367 36.2901 112.558 36.8893 112.558H79.8714C80.3195 112.558 80.7611 112.451 81.1603 112.247C81.5595 112.043 81.9049 111.747 82.1682 111.384C82.4315 111.02 82.6052 110.599 82.6752 110.155C82.7452 109.711 82.7094 109.257 82.5708 108.83Z" fill="#292A2E"/>
<path d="M73.9647 109.92H102.736C103.453 109.92 104.034 110.503 104.034 111.222V111.256C104.034 111.975 103.453 112.558 102.736 112.558H73.9647C73.2478 112.558 72.6666 111.975 72.6666 111.256V111.222C72.6666 110.503 73.2478 109.92 73.9647 109.92Z" fill="#292A2E"/>
<path d="M53.1056 99.5547C50.6159 99.5547 48.5976 97.5303 48.5976 95.033C48.5976 92.5357 50.6159 90.5112 53.1056 90.5112C55.5953 90.5112 57.6136 92.5357 57.6136 95.033C57.6136 97.5303 55.5953 99.5547 53.1056 99.5547Z" fill="white"/>
<path d="M4.07328 62.267H51.5291L57.6126 66.8382V43.2095C57.6126 42.1546 57.1948 41.1429 56.4511 40.3969C55.7075 39.651 54.6988 39.2319 53.6471 39.2319H4.07328C3.02158 39.2319 2.01295 39.651 1.26929 40.3969C0.52562 41.1429 0.107826 42.1546 0.107826 43.2095V58.2896C0.107883 59.3445 0.525703 60.3562 1.26936 61.102C2.01302 61.8479 3.02162 62.267 4.07328 62.267Z" fill="white"/>
<path d="M57.6126 66.9464C57.6293 66.9463 57.6459 66.9424 57.6609 66.9349C57.6788 66.9259 57.6938 66.9121 57.7043 66.895C57.7148 66.878 57.7204 66.8583 57.7204 66.8382V43.2095C57.7191 42.1263 57.2896 41.0878 56.526 40.3218C55.7624 39.5559 54.727 39.125 53.6471 39.1238H4.07328C2.99336 39.125 1.95803 39.5559 1.19442 40.3218C0.430801 41.0878 0.00125122 42.1263 -3.8147e-06 43.2095V58.2894C0.00125122 59.3726 0.430801 60.4111 1.19442 61.177C1.95803 61.943 2.99336 62.3738 4.07328 62.3751H51.4931L57.5479 66.9247C57.5665 66.9388 57.5892 66.9464 57.6126 66.9464ZM53.6471 39.3401C54.6699 39.3412 55.6504 39.7493 56.3736 40.4747C57.0968 41.2001 57.5036 42.1836 57.5047 43.2095V66.6221L51.5925 62.1804C51.5738 62.1664 51.5511 62.1588 51.5278 62.1588H4.07328C3.05052 62.1576 2.06997 61.7496 1.34678 61.0242C0.623577 60.2988 0.216782 59.3153 0.215641 58.2894V43.2095C0.216782 42.1836 0.623577 41.2001 1.34678 40.4747C2.06997 39.7493 3.05052 39.3412 4.07328 39.3401H53.6471Z" fill="#292A2E"/>
<path d="M4.224 50.4855H35.3033C35.3437 50.4855 35.3825 50.4694 35.4111 50.4407C35.4397 50.4121 35.4557 50.3732 35.4557 50.3326C35.4557 50.2921 35.4397 50.2532 35.4111 50.2245C35.3825 50.1958 35.3437 50.1797 35.3033 50.1797H4.224C4.18356 50.1797 4.14478 50.1958 4.11619 50.2245C4.08759 50.2532 4.07154 50.2921 4.07154 50.3326C4.07154 50.3732 4.08759 50.4121 4.11619 50.4407C4.14478 50.4694 4.18356 50.4855 4.224 50.4855Z" fill="#367CFF"/>
<path d="M4.224 54.3085H35.3033C35.3233 54.3085 35.3431 54.3046 35.3616 54.2969C35.3801 54.2892 35.3969 54.2779 35.4111 54.2637C35.4252 54.2495 35.4364 54.2327 35.4441 54.2141C35.4518 54.1956 35.4557 54.1757 35.4557 54.1556C35.4557 54.1355 35.4518 54.1156 35.4441 54.0971C35.4364 54.0785 35.4252 54.0617 35.4111 54.0475C35.3969 54.0333 35.3801 54.022 35.3616 54.0143C35.3431 54.0066 35.3233 54.0027 35.3033 54.0027H4.224C4.20397 54.0027 4.18415 54.0066 4.16565 54.0143C4.14715 54.022 4.13034 54.0333 4.11619 54.0475C4.10203 54.0617 4.0908 54.0785 4.08314 54.0971C4.07548 54.1156 4.07154 54.1355 4.07154 54.1556C4.07154 54.1757 4.07548 54.1956 4.08314 54.2141C4.0908 54.2327 4.10203 54.2495 4.11619 54.2637C4.13034 54.2779 4.14715 54.2892 4.16565 54.2969C4.18415 54.3046 4.20397 54.3085 4.224 54.3085Z" fill="#367CFF"/>
<path d="M18.4014 58.131H35.3033C35.3437 58.131 35.3825 58.1149 35.4111 58.0863C35.4397 58.0576 35.4557 58.0187 35.4557 57.9781C35.4557 57.9376 35.4397 57.8987 35.4111 57.87C35.3825 57.8413 35.3437 57.8252 35.3033 57.8252H18.4014C18.3814 57.8252 18.3616 57.8292 18.3431 57.8368C18.3246 57.8445 18.3078 57.8558 18.2936 57.87C18.2794 57.8842 18.2682 57.901 18.2606 57.9196C18.2529 57.9382 18.249 57.958 18.249 57.9781C18.249 57.9982 18.2529 58.0181 18.2606 58.0366C18.2682 58.0552 18.2794 58.0721 18.2936 58.0863C18.3078 58.1005 18.3246 58.1117 18.3431 58.1194C18.3616 58.1271 18.3814 58.131 18.4014 58.131Z" fill="#367CFF"/>
<path d="M46.4446 59.0929C42.2184 59.0929 38.7923 55.6564 38.7923 51.4173C38.7923 47.1782 42.2184 43.7417 46.4446 43.7417C50.6709 43.7417 54.0969 47.1782 54.0969 51.4173C54.0969 55.6564 50.6709 59.0929 46.4446 59.0929Z" fill="#292A2E"/>
<path d="M33.1069 43.1038L32.4837 44.7208L30.758 44.8153L32.0988 45.9096L31.6552 47.5853L33.1069 46.6441L34.5587 47.5853L34.1151 45.9096L35.4557 44.8153L33.7299 44.7208L33.1069 43.1038Z" fill="#367CFF"/>
<path d="M26.9374 43.1038L26.3142 44.7208L24.5884 44.8153L25.9293 45.9096L25.4857 47.5853L26.9374 46.6441L28.3891 47.5853L27.9455 45.9096L29.2862 44.8153L27.5604 44.7208L26.9374 43.1038Z" fill="#367CFF"/>
<path d="M20.7679 43.1038L20.1447 44.7208L18.4189 44.8153L19.7598 45.9096L19.3162 47.5853L20.7679 46.6441L22.2196 47.5853L21.776 45.9096L23.1167 44.8153L21.3909 44.7208L20.7679 43.1038Z" fill="#367CFF"/>
<path d="M14.5983 43.1038L13.9751 44.7208L12.2493 44.8153L13.59 45.9096L13.1466 47.5853L14.5983 46.6441L16.05 47.5853L15.6065 45.9096L16.9471 44.8153L15.2213 44.7208L14.5983 43.1038Z" fill="#367CFF"/>
<path d="M8.42882 43.1038L7.80561 44.7208L6.07982 44.8153L7.42047 45.9096L6.97711 47.5853L8.42882 46.6441L9.88052 47.5853L9.43694 45.9096L10.7776 44.8153L9.0518 44.7208L8.42882 43.1038Z" fill="#367CFF"/>
<path d="M69.0351 26.4148H86.1701C87.3743 26.4148 88.3505 27.3939 88.3505 28.6018V41.1805C88.3505 42.3883 87.3743 43.3675 86.1701 43.3675H69.0351C67.831 43.3675 66.8548 42.3883 66.8548 41.1805V28.6018C66.8548 27.3939 67.831 26.4148 69.0351 26.4148Z" fill="#292A2E"/>
<path d="M72.1887 36.1304H72.2661C72.0252 36.1818 71.8094 36.3149 71.655 36.5075C71.5007 36.7 71.4174 36.94 71.4191 37.187C71.4251 37.4735 71.5435 37.746 71.7486 37.9454C71.9537 38.1448 72.2289 38.2551 72.5145 38.2523H72.6937C72.4737 38.3278 72.2842 38.4731 72.154 38.6663C72.0237 38.8595 71.9598 39.0901 71.972 39.323C71.9906 39.6007 72.1145 39.8607 72.3182 40.0498C72.5219 40.2388 72.79 40.3425 73.0674 40.3396H73.3976L79.9962 40.3338L79.9868 31.8695C79.3398 30.8707 78.2021 29.1829 78.2021 29.1829C78.0261 28.9027 77.7463 28.7041 77.4243 28.6308C77.1022 28.5575 76.7644 28.6156 76.485 28.7921C76.2057 28.9687 76.0077 29.2494 75.9347 29.5723C75.8616 29.8953 75.9195 30.2342 76.0955 30.5144L76.9395 31.8585L75.9443 31.86H75.2368L71.9677 31.8637C71.6878 31.8615 71.4178 31.9678 71.2142 32.1604C71.0105 32.353 70.8888 32.617 70.8746 32.8974C70.8694 33.0412 70.8931 33.1846 70.9442 33.319C70.9954 33.4534 71.0731 33.5761 71.1725 33.6798C71.272 33.7835 71.3912 33.8661 71.5232 33.9226C71.6551 33.9791 71.797 34.0084 71.9405 34.0087C71.6996 34.0601 71.4837 34.1932 71.3293 34.3857C71.1749 34.5781 71.0913 34.8181 71.0928 35.0651C71.099 35.3516 71.2176 35.6241 71.4227 35.8235C71.6278 36.0229 71.903 36.1332 72.1887 36.1304Z" fill="white"/>
<path d="M79.9874 31.8288V31.8686L79.9939 40.3328V40.3402L83.5188 40.3344L83.5121 31.8228L79.9874 31.8288Z" fill="#367CFF"/>
<path opacity="0.65" d="M81.7531 34.0581C81.3509 34.0581 81.0249 33.731 81.0249 33.3276C81.0249 32.9242 81.3509 32.5972 81.7531 32.5972C82.1553 32.5972 82.4813 32.9242 82.4813 33.3276C82.4813 33.731 82.1553 34.0581 81.7531 34.0581Z" fill="white"/>
<path d="M46.4438 30.4676C41.4587 30.4676 37.4174 26.414 37.4174 21.4137C37.4174 16.4134 41.4587 12.3599 46.4438 12.3599C51.4289 12.3599 55.4702 16.4134 55.4702 21.4137C55.4702 26.414 51.4289 30.4676 46.4438 30.4676Z" fill="#367CFF"/>
<path d="M41.826 21.3982C41.8219 22.0091 41.9382 22.6149 42.1684 23.1805C42.3987 23.7461 42.7381 24.2605 43.1674 24.694C43.5966 25.1275 44.1071 25.4715 44.6694 25.7063C45.2317 25.941 45.8348 26.0619 46.4439 26.0619C47.053 26.0619 47.6561 25.941 48.2184 25.7063C48.7808 25.4715 49.2912 25.1275 49.7205 24.694C50.1497 24.2605 50.4892 23.7461 50.7194 23.1805C50.9496 22.6149 51.0659 22.0091 51.0618 21.3982H41.826Z" fill="white"/>
<path d="M49.7034 18.5689C49.2691 18.5689 48.917 18.2157 48.917 17.7801C48.917 17.3444 49.2691 16.9912 49.7034 16.9912C50.1378 16.9912 50.4899 17.3444 50.4899 17.7801C50.4899 18.2157 50.1378 18.5689 49.7034 18.5689Z" fill="#0C0C0C"/>
<path d="M43.1844 18.5689C42.75 18.5689 42.3979 18.2157 42.3979 17.7801C42.3979 17.3444 42.75 16.9912 43.1844 16.9912C43.6187 16.9912 43.9708 17.3444 43.9708 17.7801C43.9708 18.2157 43.6187 18.5689 43.1844 18.5689Z" fill="#0C0C0C"/>
<path d="M46.4447 51.7649C44.677 51.7649 43.2441 50.3276 43.2441 48.5546C43.2441 46.7815 44.677 45.3442 46.4447 45.3442C48.2123 45.3442 49.6452 46.7815 49.6452 48.5546C49.6452 50.3276 48.2123 51.7649 46.4447 51.7649Z" fill="white"/>
<path d="M40.3724 56.0902C41.0873 57.0239 42.0066 57.7802 43.0594 58.3007C44.1121 58.8212 45.2701 59.0918 46.4438 59.0918C47.6175 59.0918 48.7754 58.8212 49.8282 58.3007C50.881 57.7802 51.8003 57.0239 52.5152 56.0902C51.7604 55.2183 50.8277 54.5192 49.7803 54.0401C48.7328 53.5609 47.595 53.313 46.4438 53.313C45.2926 53.313 44.1548 53.5609 43.1073 54.0401C42.0599 54.5192 41.1272 55.2183 40.3724 56.0902Z" fill="white"/>
<path d="M46.4446 59.2011C47.9795 59.2011 49.4798 58.7446 50.756 57.8894C52.0322 57.0341 53.0268 55.8184 53.6142 54.3962C54.2016 52.9739 54.3553 51.4088 54.0559 49.8989C53.7565 48.389 53.0174 47.002 51.9322 45.9134C50.8469 44.8248 49.4642 44.0835 47.9589 43.7831C46.4535 43.4828 44.8932 43.6369 43.4752 44.226C42.0573 44.8152 40.8453 45.8128 39.9926 47.0929C39.1399 48.3729 38.6847 49.8778 38.6847 51.4173C38.687 53.4809 39.5053 55.4594 40.9601 56.9186C42.4148 58.3779 44.3873 59.1987 46.4446 59.2011ZM46.4446 43.8498C47.9368 43.8498 49.3955 44.2936 50.6362 45.1251C51.8769 45.9566 52.8439 47.1384 53.415 48.5212C53.986 49.904 54.1355 51.4255 53.8444 52.8935C53.5533 54.3615 52.8348 55.7099 51.7797 56.7682C50.7246 57.8266 49.3803 58.5473 47.9168 58.8393C46.4533 59.1313 44.9363 58.9815 43.5578 58.4087C42.1792 57.836 41.0009 56.866 40.1719 55.6216C39.3429 54.3771 38.9004 52.914 38.9004 51.4173C38.9026 49.411 39.6982 47.4875 41.1125 46.0688C42.5268 44.6502 44.4444 43.8521 46.4446 43.8498Z" fill="#292A2E"/>
<path d="M28.6227 109.291C28.6532 109.291 28.6831 109.282 28.709 109.266C28.7349 109.25 28.7557 109.226 28.7691 109.199L33.0621 100.367C33.0803 100.328 33.0826 100.284 33.0684 100.243C33.0542 100.203 33.0247 100.169 32.9862 100.151C32.9477 100.132 32.9034 100.129 32.8629 100.143C32.8223 100.156 32.7887 100.185 32.7695 100.224L28.4765 109.056C28.4671 109.075 28.4616 109.096 28.4603 109.117C28.459 109.139 28.4619 109.16 28.4688 109.181C28.4758 109.201 28.4867 109.22 28.5009 109.236C28.5151 109.252 28.5323 109.265 28.5515 109.274C28.5737 109.285 28.598 109.291 28.6227 109.291Z" fill="#292A2E"/>
<path d="M21.3659 108.777C21.4018 108.777 21.4367 108.765 21.4651 108.743C21.4936 108.721 21.514 108.69 21.5231 108.655L26.4908 89.6325C26.497 89.6115 26.499 89.5895 26.4966 89.5677C26.4941 89.546 26.4874 89.5249 26.4767 89.5058C26.4659 89.4867 26.4515 89.47 26.4342 89.4566C26.4169 89.4432 26.3971 89.4335 26.376 89.4279C26.3549 89.4224 26.3328 89.4212 26.3112 89.4243C26.2896 89.4275 26.2689 89.435 26.2502 89.4464C26.2315 89.4578 26.2153 89.4728 26.2026 89.4906C26.1898 89.5084 26.1808 89.5285 26.176 89.5499L21.2082 108.573C21.2018 108.598 21.2011 108.623 21.206 108.647C21.2109 108.672 21.2214 108.695 21.2367 108.715C21.2519 108.735 21.2715 108.751 21.2939 108.762C21.3163 108.773 21.3409 108.778 21.3659 108.778V108.777Z" fill="#292A2E"/>
<path d="M11.8894 109.621C11.9112 109.621 11.9328 109.616 11.9528 109.608C11.9725 109.599 11.9904 109.587 12.0053 109.572C12.0203 109.556 12.0322 109.538 12.0402 109.518C12.0482 109.499 12.0522 109.477 12.052 109.456C12.0518 109.434 12.0474 109.413 12.0391 109.393L6.90377 97.2626C6.88594 97.2242 6.85396 97.1942 6.81455 97.1791C6.77514 97.1639 6.73139 97.1647 6.69254 97.1812C6.65368 97.1978 6.62276 97.2288 6.60629 97.2678C6.58982 97.3068 6.58909 97.3507 6.60425 97.3902L11.7396 109.521C11.752 109.551 11.7729 109.576 11.7996 109.593C11.8262 109.611 11.8575 109.621 11.8894 109.621Z" fill="#292A2E"/>
<path d="M21.1815 112.431C21.1949 112.431 21.2082 112.429 21.2211 112.426C21.2419 112.421 21.2614 112.411 21.2786 112.399C21.2958 112.386 21.3103 112.37 21.3213 112.351C21.3323 112.333 21.3395 112.313 21.3427 112.292C21.3458 112.27 21.3447 112.249 21.3395 112.228L15.3725 88.2836C15.362 88.2415 15.3353 88.2054 15.2982 88.1831C15.2612 88.1609 15.2169 88.1543 15.175 88.1648C15.1331 88.1753 15.0971 88.2021 15.0749 88.2393C15.0527 88.2764 15.0461 88.3209 15.0566 88.3629L21.0238 112.307C21.0327 112.343 21.053 112.374 21.0815 112.396C21.1101 112.419 21.1452 112.431 21.1815 112.431Z" fill="#292A2E"/>
<path d="M10.8426 96.8443C7.92043 95.45 6.86399 91.5523 8.48299 88.1385C10.102 84.7246 13.7833 83.0875 16.7055 84.4818C19.6277 85.876 20.6842 89.7738 19.0652 93.1876C17.4462 96.6015 13.7648 98.2386 10.8426 96.8443Z" fill="#0CBC8B"/>
<path opacity="0.4" d="M10.8426 96.8443C7.92043 95.45 6.86399 91.5523 8.48299 88.1385C10.102 84.7246 13.7833 83.0875 16.7055 84.4818C19.6277 85.876 20.6842 89.7738 19.0652 93.1876C17.4462 96.6015 13.7648 98.2386 10.8426 96.8443Z" fill="white"/>
<path d="M4.31167 103.592C2.5546 102.883 1.81479 100.602 2.65927 98.4991C3.50374 96.396 5.6127 95.2664 7.36977 95.9762C9.12684 96.6861 9.86666 98.9664 9.02219 101.07C8.17772 103.173 6.06874 104.302 4.31167 103.592Z" fill="#0CBC8B"/>
<path d="M23.272 93.9614C22.3013 90.7481 23.6302 87.5001 26.2404 86.7068C28.8505 85.9134 31.7534 87.8751 32.7242 91.0884C33.6949 94.3016 32.3659 97.5496 29.7558 98.343C27.1457 99.1364 24.2428 97.1747 23.272 93.9614Z" fill="#0CBC8B"/>
<path d="M30.9556 101.93C30.6122 99.8728 31.5149 98.007 32.9718 97.7622C34.4288 97.5174 35.8883 98.9864 36.2318 101.043C36.5752 103.1 35.6726 104.966 34.2156 105.211C32.7586 105.456 31.2991 103.987 30.9556 101.93Z" fill="#0CBC8B"/>
<path d="M7.09981 106.32H32.4473V112.655H7.09981V106.32Z" fill="#292A2E"/>
<path opacity="0.3" d="M7.09981 106.32H32.4473V112.655H7.09981V106.32Z" fill="white"/>
<path d="M13.2426 107.776C11.0883 106.905 10.178 104.118 11.2093 101.552C12.2406 98.9848 14.8231 97.6099 16.9774 98.4808C19.1316 99.3516 20.042 102.138 19.0106 104.705C17.9793 107.272 15.3969 108.647 13.2426 107.776Z" fill="#0CBC8B"/>
<path d="M24.7396 107.162C22.5949 107.162 20.8563 105.418 20.8563 103.267C20.8563 101.116 22.5949 99.3718 24.7396 99.3718C26.8843 99.3718 28.6229 101.116 28.6229 103.267C28.6229 105.418 26.8843 107.162 24.7396 107.162Z" fill="#0CBC8B"/>
<path opacity="0.68" d="M4.31167 103.592C2.5546 102.883 1.81479 100.602 2.65927 98.4991C3.50374 96.396 5.6127 95.2664 7.36977 95.9762C9.12684 96.6861 9.86666 98.9664 9.02219 101.07C8.17772 103.173 6.06874 104.302 4.31167 103.592Z" fill="white"/>
<path opacity="0.68" d="M23.272 93.9614C22.3013 90.7481 23.6302 87.5001 26.2404 86.7068C28.8505 85.9134 31.7534 87.8751 32.7242 91.0884C33.6949 94.3016 32.3659 97.5496 29.7558 98.343C27.1457 99.1364 24.2428 97.1747 23.272 93.9614Z" fill="white"/>
<path opacity="0.68" d="M30.9556 101.93C30.6122 99.8728 31.5149 98.007 32.9718 97.7622C34.4288 97.5174 35.8883 98.9864 36.2318 101.043C36.5752 103.1 35.6726 104.966 34.2156 105.211C32.7586 105.456 31.2991 103.987 30.9556 101.93Z" fill="white"/>
<path opacity="0.68" d="M13.2426 107.776C11.0883 106.905 10.178 104.118 11.2093 101.552C12.2406 98.9848 14.8231 97.6099 16.9774 98.4808C19.1316 99.3516 20.042 102.138 19.0106 104.705C17.9793 107.272 15.3969 108.647 13.2426 107.776Z" fill="white"/>
<path opacity="0.4" d="M24.7396 107.162C22.5949 107.162 20.8563 105.418 20.8563 103.267C20.8563 101.116 22.5949 99.3718 24.7396 99.3718C26.8843 99.3718 28.6229 101.116 28.6229 103.267C28.6229 105.418 26.8843 107.162 24.7396 107.162Z" fill="white"/>
<path d="M12.2664 99.9874C15.2138 100.813 16.7649 98.3974 16.7649 98.3974L16.7632 98.3942C15.1909 97.9239 13.4479 98.5852 12.2664 99.9874Z" fill="#292A2E"/>
<path d="M30.8841 100.977C32.3348 100.42 33.5371 99.3572 34.271 97.9837C33.8734 97.7708 33.4175 97.6934 32.9722 97.7633C31.7449 97.9682 30.9117 99.3248 30.8841 100.977Z" fill="#292A2E"/>
<path d="M24.0465 99.4341C25.177 100.455 26.5893 101.109 28.0976 101.31C27.696 100.618 27.0917 100.067 26.367 99.7311C25.6422 99.3956 24.832 99.2919 24.0465 99.4341Z" fill="#292A2E"/>
</g>
<defs>
<clipPath id="clip0_214_310">
<rect width="168" height="113" fill="white" transform="matrix(-1 0 0 1 168 0)"/>
</clipPath>
</defs>
</svg>
